M48
; DRILL file {KiCad 9.0.4} date 2025-10-06T20:14:28-0400
; FORMAT={-:-/ absolute / inch / decimal}
; #@! TF.CreationDate,2025-10-06T20:14:28-04:00
; #@! TF.GenerationSoftware,Kicad,Pcbnew,9.0.4
; #@! TF.FileFunction,Plated,1,6,PTH
FMAT,2
INCH
; #@! TA.AperFunction,Plated,PTH,ViaDrill
T1C0.0118
; #@! TA.AperFunction,Plated,PTH,ViaDrill
T2C0.0138
; #@! TA.AperFunction,Plated,PTH,ComponentDrill
T3C0.0197
; #@! TA.AperFunction,Plated,PTH,ComponentDrill
T4C0.0236
; #@! TA.AperFunction,Plated,PTH,ComponentDrill
T5C0.0394
; #@! TA.AperFunction,Plated,PTH,ComponentDrill
T6C0.0512
; #@! TA.AperFunction,Plated,PTH,ComponentDrill
T7C0.0906
; #@! TA.AperFunction,Plated,PTH,ComponentDrill
T8C0.1260
%
G90
G05
T1
X3.8189Y-2.6594
X3.8189Y-2.7083
X3.8189Y-2.7572
X3.8189Y-2.8061
X3.8189Y-2.855
X3.8189Y-2.9039
X3.8189Y-2.9528
X3.8189Y-3.0017
X3.8189Y-3.0506
X3.8189Y-3.0995
X3.8189Y-3.1484
X3.8189Y-3.1973
X3.8189Y-3.2462
X3.8189Y-3.2951
X3.8189Y-3.344
X3.8189Y-3.3929
X3.8189Y-3.4418
X3.8189Y-3.4907
X3.8189Y-3.5396
X3.8189Y-3.5885
X3.8189Y-3.6374
X3.8189Y-3.6862
X3.8189Y-3.7351
X3.8189Y-3.784
X3.8189Y-3.8329
X3.8189Y-3.8818
X3.8189Y-3.9307
X3.8189Y-3.9796
X3.8189Y-4.0285
X3.8189Y-4.0774
X3.8189Y-4.1263
X3.8189Y-4.1752
X3.8681Y-2.6594
X3.8681Y-4.1752
X3.874Y-3.1457
X3.878Y-3.3268
X3.878Y-3.4961
X3.9173Y-2.6594
X3.9173Y-4.1752
X3.9665Y-2.6299
X3.9665Y-4.2047
X3.9843Y-3.9961
X4.0059Y-2.6004
X4.0059Y-4.2343
X4.0354Y-2.561
X4.0354Y-4.2736
X4.065Y-2.4134
X4.065Y-2.4626
X4.065Y-2.5118
X4.065Y-4.3228
X4.065Y-4.372
X4.065Y-4.4213
X4.1102Y-3.6496
X4.1142Y-2.4134
X4.1142Y-4.4213
X4.1496Y-2.5079
X4.1614Y-4.3386
X4.1631Y-2.4134
X4.1631Y-4.4213
X4.212Y-2.4134
X4.212Y-4.4213
X4.261Y-2.4134
X4.261Y-4.4213
X4.3099Y-2.4134
X4.3099Y-4.4213
X4.311Y-3.1496
X4.3588Y-2.4134
X4.3588Y-4.4213
X4.4078Y-2.4134
X4.4078Y-4.4213
X4.4134Y-4.3425
X4.4173Y-2.7638
X4.4252Y-3.9921
X4.4567Y-2.4134
X4.4567Y-4.4213
X4.5056Y-2.4134
X4.5056Y-4.4213
X4.5197Y-2.626
X4.5546Y-2.4134
X4.5546Y-4.4213
X4.6035Y-2.4134
X4.6035Y-4.4213
X4.6524Y-2.4134
X4.6524Y-4.4213
X4.7013Y-2.4134
X4.7013Y-4.4213
X4.7503Y-2.4134
X4.7503Y-4.4213
X4.7992Y-2.4134
X4.7992Y-4.4213
X4.8481Y-2.4134
X4.8481Y-4.4213
X4.8971Y-2.4134
X4.8971Y-4.4213
X4.946Y-2.4134
X4.946Y-4.4213
X4.9949Y-2.4134
X4.9949Y-4.4213
X5.0433Y-2.7559
X5.0439Y-2.4134
X5.0439Y-4.4213
X5.0928Y-2.4134
X5.0928Y-4.4213
X5.126Y-2.563
X5.1417Y-2.4134
X5.1417Y-4.4213
X5.1907Y-2.4134
X5.1907Y-4.4213
X5.1929Y-2.7598
X5.2126Y-2.6417
X5.2396Y-2.4134
X5.2396Y-4.4213
X5.2885Y-2.4134
X5.2885Y-4.4213
X5.2913Y-3.4016
X5.2913Y-3.5039
X5.2913Y-3.5984
X5.3228Y-2.7559
X5.3375Y-2.4134
X5.3375Y-4.4213
X5.3819Y-2.563
X5.3864Y-2.4134
X5.3864Y-4.4213
X5.4353Y-2.4134
X5.4353Y-4.4213
X5.4843Y-2.4134
X5.4843Y-4.4213
X5.4882Y-2.4843
X5.5332Y-2.4134
X5.5332Y-4.4213
X5.5821Y-2.4134
X5.5821Y-4.4213
X5.631Y-2.4134
X5.631Y-4.4213
X5.68Y-2.4134
X5.68Y-4.4213
X5.7087Y-4.189
X5.7087Y-4.3031
X5.7205Y-2.4961
X5.7205Y-3.2008
X5.7289Y-2.4134
X5.7289Y-4.4213
X5.7778Y-2.4134
X5.7778Y-4.4213
X5.8006Y-3.7169
X5.8268Y-2.4134
X5.8268Y-4.4213
X5.8757Y-2.4134
X5.8757Y-4.4213
X5.9246Y-2.4134
X5.9246Y-4.4213
X5.9685Y-2.4724
X5.9736Y-2.4134
X5.9736Y-4.4213
X5.9961Y-3.315
X6.0225Y-2.4134
X6.0225Y-4.4213
X6.0512Y-3.8583
X6.0714Y-2.4134
X6.0714Y-4.4213
X6.1204Y-2.4134
X6.1204Y-4.4213
X6.1535Y-3.3465
X6.1693Y-2.4134
X6.1693Y-4.4213
X6.1732Y-3.0354
X6.2182Y-2.4134
X6.2182Y-4.4213
X6.2672Y-2.4134
X6.2672Y-4.4213
X6.3161Y-2.4134
X6.3161Y-4.4213
X6.3543Y-3.3228
X6.365Y-2.4134
X6.365Y-4.4213
X6.4139Y-2.4134
X6.4139Y-4.4213
X6.4173Y-2.4685
X6.4173Y-2.6654
X6.4629Y-2.4134
X6.4629Y-4.4213
X6.4882Y-4.3661
X6.5118Y-2.4134
X6.5118Y-4.4213
X6.5607Y-2.4134
X6.5607Y-4.4213
X6.6097Y-2.4134
X6.6097Y-4.4213
X6.6586Y-2.4134
X6.6586Y-4.4213
X6.689Y-4.1496
X6.7075Y-2.4134
X6.7075Y-4.4213
X6.7565Y-2.4134
X6.7565Y-4.4213
X6.7756Y-4.374
X6.8054Y-2.4134
X6.8054Y-4.4213
X6.8543Y-2.4134
X6.8543Y-4.4213
X6.9033Y-2.4134
X6.9033Y-4.4213
X6.9522Y-2.4134
X6.9522Y-4.4213
X6.9764Y-4.3228
X7.0011Y-2.4134
X7.0011Y-4.4213
X7.0501Y-2.4134
X7.0501Y-4.4213
X7.0512Y-3.7756
X7.0551Y-3.6654
X7.0984Y-4.1811
X7.0984Y-4.3228
X7.099Y-2.4134
X7.099Y-4.4213
X7.1181Y-3.1909
X7.1479Y-2.4134
X7.1479Y-4.4213
X7.1732Y-3.2953
X7.1732Y-4.248
X7.1969Y-2.4134
X7.1969Y-4.4213
X7.2008Y-2.6693
X7.2205Y-2.4646
X7.2244Y-2.5709
X7.2458Y-2.4134
X7.2458Y-4.4213
X7.2947Y-2.4134
X7.2947Y-4.4213
X7.3307Y-3.9016
X7.3425Y-3.1437
X7.3436Y-2.4134
X7.3436Y-4.4213
X7.3504Y-3.5748
X7.3926Y-2.4134
X7.3926Y-4.4213
X7.4341Y-2.999
X7.4409Y-3.1398
X7.4415Y-2.4134
X7.4415Y-4.4213
X7.4439Y-3.0379
X7.4724Y-3.4646
X7.4882Y-4.0472
X7.4904Y-2.4134
X7.4904Y-4.4213
X7.4921Y-2.9547
X7.4961Y-2.4961
X7.5079Y-4.3504
X7.5394Y-2.4134
X7.5394Y-4.4213
X7.5512Y-3.0591
X7.5669Y-2.6417
X7.5669Y-4.189
X7.5886Y-2.4134
X7.5886Y-2.4626
X7.5886Y-2.5118
X7.5886Y-4.3228
X7.5886Y-4.372
X7.5886Y-4.4213
X7.6181Y-2.561
X7.6181Y-4.2736
X7.6476Y-2.6004
X7.6476Y-4.2343
X7.6811Y-4.0591
X7.687Y-2.6299
X7.687Y-4.2047
X7.6929Y-3.4606
X7.6969Y-2.7126
X7.7008Y-3.0591
X7.7362Y-2.6594
X7.7362Y-4.1752
X7.7854Y-2.6594
X7.7854Y-4.1752
X7.8346Y-2.6594
X7.8346Y-2.8465
X7.8346Y-2.8957
X7.8346Y-3.0591
X7.8346Y-3.2303
X7.8346Y-3.2795
X7.8346Y-3.4272
X7.8346Y-3.4764
X7.8346Y-3.5256
X7.8346Y-3.7313
X7.8346Y-3.7805
X7.8346Y-3.9783
X7.8346Y-4.0276
X7.8346Y-4.0768
X7.8346Y-4.126
X7.8346Y-4.1752
T2
X3.8839Y-3.6417
X3.8888Y-3.0699
X3.8898Y-2.7205
X3.9075Y-4.1339
X3.9085Y-3.9862
X3.9449Y-3.6417
X3.9783Y-2.6969
X3.9783Y-2.7402
X3.9803Y-3.9247
X3.999Y-3.6398
X4.0207Y-3.9596
X4.0217Y-2.6969
X4.0217Y-2.7402
X4.06Y-3.6457
X4.061Y-3.1083
X4.063Y-2.6969
X4.0817Y-3.9567
X4.1083Y-3.2884
X4.1102Y-3.5413
X4.1122Y-4.1998
X4.1142Y-3.8022
X4.123Y-3.3327
X4.1309Y-3.501
X4.1339Y-3.1713
X4.1469Y-3.4154
X4.1535Y-3.5354
X4.1619Y-3.908
X4.1624Y-3.5758
X4.1624Y-3.7293
X4.1626Y-3.4827
X4.1831Y-4.0669
X4.2028Y-3.5197
X4.2224Y-2.8238
X4.2224Y-3.0404
X4.226Y-3.1669
X4.25Y-3.1083
X4.2648Y-3.3307
X4.2726Y-2.8238
X4.2726Y-3.0404
X4.274Y-3.215
X4.298Y-3.3213
X4.3228Y-2.8238
X4.3228Y-2.878
X4.3228Y-2.9321
X4.3228Y-2.9862
X4.3228Y-3.0404
X4.3449Y-3.4406
X4.3745Y-2.8769
X4.3745Y-2.9114
X4.3745Y-2.9458
X4.3745Y-2.9803
X4.3888Y-3.5748
X4.3888Y-3.7274
X4.3983Y-3.0052
X4.3993Y-2.853
X4.4231Y-3.029
X4.4232Y-2.8819
X4.4237Y-2.8287
X4.439Y-3.2303
X4.4459Y-3.7982
X4.4469Y-3.8602
X4.4481Y-2.8043
X4.4488Y-3.376
X4.4488Y-3.439
X4.4516Y-3.2823
X4.4528Y-3.0472
X4.4606Y-3.937
X4.4724Y-2.7799
X4.4811Y-3.4075
X4.4823Y-3.9656
X4.4872Y-3.0472
X4.4909Y-3.5625
X4.4921Y-3.8701
X4.4961Y-2.813
X4.5016Y-2.7657
X4.5089Y-3.2224
X4.5108Y-3.2628
X4.5118Y-3.376
X4.5118Y-3.439
X4.5167Y-3.9633
X4.5187Y-2.4626
X4.5217Y-3.0472
X4.5256Y-4.1634
X4.5276Y-3.002
X4.5361Y-2.7657
X4.5384Y-4.0945
X4.5462Y-4.0539
X4.5492Y-3.8602
X4.5546Y-4.1334
X4.5546Y-4.1924
X4.5561Y-3.0472
X4.5705Y-2.7657
X4.5726Y-4.0982
X4.5817Y-3.4843
X4.5906Y-3.0472
X4.605Y-2.7657
X4.6152Y-4.2333
X4.6201Y-3.3022
X4.625Y-3.0472
X4.6291Y-4.0688
X4.6339Y-2.8287
X4.6368Y-2.5118
X4.6394Y-2.7657
X4.6476Y-2.5837
X4.6516Y-4.2431
X4.6547Y-3.7531
X4.6624Y-4.0778
X4.6651Y-2.7887
X4.6663Y-3.5659
X4.6891Y-2.8134
X4.6891Y-2.8479
X4.6891Y-2.8823
X4.6891Y-2.9168
X4.6893Y-4.2326
X4.6909Y-4.3031
X4.6998Y-2.5207
X4.6998Y-2.5797
X4.7047Y-3.7549
X4.7244Y-2.9272
X4.7298Y-3.8588
X4.7298Y-3.9122
X4.7298Y-3.9657
X4.7298Y-4.0192
X4.7431Y-2.874
X4.7574Y-3.5719
X4.7598Y-2.6919
X4.7677Y-3.1516
X4.7677Y-3.1909
X4.7707Y-3.0157
X4.7787Y-3.8588
X4.7787Y-3.9122
X4.7787Y-3.9657
X4.7787Y-4.0192
X4.7861Y-3.0466
X4.7877Y-3.1235
X4.7953Y-3.5748
X4.8031Y-3.1909
X4.8041Y-2.801
X4.8041Y-4.2333
X4.8047Y-3.721
X4.8066Y-3.7554
X4.815Y-4.1457
X4.8276Y-3.8588
X4.8276Y-3.9122
X4.8276Y-3.9657
X4.8276Y-4.0192
X4.8287Y-3.0797
X4.8376Y-2.4764
X4.8386Y-2.6378
X4.8593Y-3.7254
X4.8652Y-4.3022
X4.8765Y-3.8588
X4.8765Y-3.9122
X4.8765Y-3.9657
X4.8765Y-4.0192
X4.8773Y-3.7547
X4.8848Y-2.8238
X4.8878Y-3.0797
X4.8927Y-2.7874
X4.8957Y-3.4006
X4.8976Y-3.4614
X4.903Y-3.7318
X4.9311Y-3.7579
X4.938Y-2.501
X4.9413Y-2.6596
X4.9449Y-3.3799
X4.9577Y-2.69
X4.9636Y-3.4793
X4.9656Y-3.4321
X4.9705Y-3.7421
X4.9715Y-4.1949
X4.9921Y-3.3789
X4.9921Y-4.0994
X5.0049Y-2.8012
X5.0177Y-3.626
X5.0187Y-3.9665
X5.0266Y-3.4075
X5.0276Y-3.4685
X5.0433Y-2.9321
X5.0463Y-4.3031
X5.0522Y-2.6949
X5.061Y-3.565
X5.0629Y-2.8228
X5.064Y-4.0984
X5.125Y-3.7992
X5.125Y-3.9203
X5.1252Y-3.8593
X5.126Y-4.1132
X5.128Y-2.689
X5.1299Y-4.3612
X5.1496Y-3.4075
X5.1496Y-3.565
X5.1673Y-3.6388
X5.1673Y-3.6831
X5.1673Y-3.7274
X5.1742Y-2.8051
X5.1742Y-2.8661
X5.186Y-4.1821
X5.1909Y-4.0541
X5.1909Y-4.1053
X5.1969Y-4.2589
X5.2126Y-3.5807
X5.2215Y-2.9744
X5.2224Y-3.8898
X5.2352Y-2.7825
X5.2352Y-2.8809
X5.2402Y-3.2249
X5.2425Y-3.0075
X5.2441Y-3.4075
X5.2894Y-3.9459
X5.2953Y-3.3106
X5.2992Y-3.7362
X5.3002Y-3.2249
X5.3031Y-3.0039
X5.3031Y-4.0797
X5.3041Y-4.0285
X5.3051Y-4.2844
X5.3071Y-4.1309
X5.3071Y-4.3356
X5.3102Y-3.8732
X5.3291Y-4.3092
X5.3425Y-3.0079
X5.3504Y-4.0522
X5.3533Y-3.9075
X5.3701Y-3.0354
X5.3701Y-4.3406
X5.3839Y-3.9242
X5.3848Y-2.689
X5.3858Y-4.0098
X5.3976Y-3.0079
X5.4055Y-3.0748
X5.4055Y-3.1191
X5.4055Y-3.1634
X5.4075Y-3.8396
X5.4134Y-3.3484
X5.4134Y-3.4075
X5.4134Y-3.6713
X5.4134Y-3.7087
X5.4144Y-3.9075
X5.4154Y-3.2264
X5.4242Y-4.0797
X5.4242Y-4.2333
X5.4242Y-4.3356
X5.4469Y-3.2008
X5.4488Y-3.0866
X5.4508Y-2.9882
X5.4675Y-2.7667
X5.4675Y-2.8268
X5.4764Y-3.2264
X5.5089Y-2.6398
X5.5108Y-3.5719
X5.5118Y-2.9882
X5.5118Y-3.4567
X5.5276Y-3.2249
X5.5364Y-2.5807
X5.5433Y-4.1634
X5.5709Y-4.0354
X5.5719Y-3.5728
X5.5846Y-3.7854
X5.5886Y-3.8465
X5.5974Y-2.5167
X5.6048Y-4.1634
X5.6152Y-2.686
X5.623Y-3.625
X5.625Y-3.563
X5.6368Y-3.0236
X5.6398Y-3.3386
X5.6417Y-2.5335
X5.6427Y-4.1319
X5.6453Y-2.7028
X5.6457Y-3.1614
X5.6496Y-4.2766
X5.6496Y-4.3356
X5.6693Y-2.7323
X5.6772Y-4.1319
X5.6781Y-3.4419
X5.6791Y-3.3106
X5.6811Y-3.4055
X5.6988Y-3.7598
X5.7165Y-3.5679
X5.7254Y-3.7943
X5.7283Y-2.7323
X5.7283Y-4.0354
X5.7402Y-3.3091
X5.7756Y-3.7805
X5.7766Y-3.3652
X5.7766Y-3.4262
X5.7785Y-4.3435
X5.7805Y-3.9911
X5.7874Y-2.7323
X5.7874Y-3.8484
X5.8081Y-4.3051
X5.8091Y-3.5571
X5.8248Y-2.4567
X5.8258Y-3.8957
X5.8396Y-4.3435
X5.8425Y-2.5305
X5.8563Y-3.0709
X5.8839Y-3.8967
X5.8848Y-3.4172
X5.8892Y-3.0217
X5.8976Y-3.7047
X5.9055Y-2.4744
X5.9193Y-3.565
X5.9203Y-3.627
X5.935Y-2.7047
X5.935Y-3.4409
X5.9459Y-3.7411
X5.9555Y-2.591
X5.9749Y-2.937
X5.9764Y-3.0276
X5.9764Y-3.7707
X5.9843Y-2.7067
X5.9882Y-3.9961
X5.9941Y-2.5787
X5.9941Y-4.0551
X6.0039Y-3.7402
X6.0335Y-2.4705
X6.0453Y-2.7047
X6.0531Y-3.7402
X6.0709Y-3.6043
X6.0728Y-3.5433
X6.0827Y-2.9429
X6.0827Y-3.002
X6.0876Y-3.7402
X6.0974Y-2.7136
X6.122Y-2.4705
X6.122Y-3.0827
X6.122Y-3.8543
X6.1319Y-2.7018
X6.1319Y-3.4409
X6.1461Y-2.9134
X6.1614Y-3.8543
X6.1634Y-2.7392
X6.1713Y-2.591
X6.186Y-3.565
X6.186Y-3.626
X6.189Y-2.9409
X6.19Y-3.6791
X6.1978Y-2.7372
X6.2008Y-3.8543
X6.2165Y-2.9724
X6.2205Y-3.0433
X6.2234Y-3.6624
X6.2402Y-3.4252
X6.2402Y-3.8543
X6.2674Y-4.0036
X6.2677Y-3.1654
X6.2785Y-3.6407
X6.2785Y-3.6909
X6.2844Y-3.5502
X6.2874Y-3.6024
X6.2894Y-2.5945
X6.2898Y-3.3134
X6.3081Y-2.7839
X6.355Y-2.7839
X6.3642Y-3.0039
X6.3661Y-3.0945
X6.372Y-2.748
X6.373Y-3.2195
X6.3839Y-3.626
X6.3878Y-3.562
X6.4055Y-3.8543
X6.4262Y-3.5699
X6.4331Y-3.7087
X6.4547Y-3.8789
X6.4557Y-3.9636
X6.4567Y-4.1732
X6.4675Y-3.7608
X6.4823Y-3.6476
X6.4872Y-3.5699
X6.4895Y-3.8615
X6.4911Y-2.6644
X6.4912Y-3.9615
X6.4951Y-3.0118
X6.4961Y-3.2431
X6.4961Y-3.4173
X6.503Y-3.1417
X6.5157Y-4.1732
X6.5433Y-3.2805
X6.5443Y-3.315
X6.5561Y-3.0118
X6.5571Y-3.7303
X6.5581Y-3.2431
X6.5591Y-2.6063
X6.5591Y-2.6496
X6.5669Y-2.8268
X6.5839Y-3.5862
X6.5906Y-2.5787
X6.5965Y-2.7569
X6.5974Y-2.7028
X6.5984Y-2.8976
X6.6083Y-3.2451
X6.6201Y-3.6083
X6.623Y-3.06
X6.624Y-3.8465
X6.626Y-3.9252
X6.6299Y-2.6102
X6.6339Y-3.1772
X6.6388Y-2.7277
X6.6496Y-3.8865
X6.655Y-2.4601
X6.6732Y-3.8465
X6.6752Y-3.9252
X6.6841Y-3.0551
X6.685Y-3.7411
X6.686Y-3.6811
X6.7087Y-3.4803
X6.7244Y-2.8022
X6.7299Y-3.0024
X6.7323Y-3.0512
X6.7323Y-3.3661
X6.7402Y-3.1083
X6.7421Y-2.7681
X6.7421Y-3.5177
X6.7559Y-2.9764
X6.7598Y-3.027
X6.7746Y-3.4925
X6.7913Y-2.8543
X6.7913Y-3.2096
X6.8091Y-3.4925
X6.812Y-3.1486
X6.8287Y-3.7776
X6.8612Y-3.9528
X6.8671Y-3.077
X6.8681Y-3.9124
X6.8839Y-3.3524
X6.8967Y-3.6358
X6.8976Y-3.2106
X6.8976Y-3.4803
X6.8976Y-3.6801
X6.8976Y-3.7411
X6.8986Y-3.1467
X6.9316Y-2.4601
X7.0197Y-3.337
X7.0202Y-3.9641
X7.0231Y-4.0408
X7.0231Y-4.1019
X7.0261Y-2.591
X7.0408Y-2.6531
X7.0541Y-3.3388
X7.1063Y-3.5492
X7.1063Y-3.628
X7.1654Y-2.6043
X7.1698Y-4.0408
X7.1698Y-4.1019
X7.1722Y-3.6909
X7.185Y-2.7776
X7.1909Y-3.875
X7.2175Y-2.9616
X7.2195Y-3.0226
X7.2254Y-2.815
X7.2899Y-4.029
X7.3268Y-2.8051
X7.3278Y-3.4705
X7.3346Y-3.3878
X7.3819Y-3.3533
X7.4434Y-3.0989
X7.5Y-3.3543
T3
X4.2008Y-2.6535
X4.2008Y-4.1889
X4.2285Y-2.5867
X4.2285Y-2.7203
X4.2285Y-4.1221
X4.2285Y-4.2557
X4.2953Y-2.559
X4.2953Y-2.748
X4.2953Y-4.0944
X4.2953Y-4.2834
X4.3621Y-2.5867
X4.3621Y-2.7203
X4.3621Y-4.1221
X4.3621Y-4.2557
X4.3898Y-2.6535
X4.3898Y-4.1889
X7.2717Y-2.6535
X7.2717Y-4.1889
X7.2993Y-2.5867
X7.2993Y-2.7203
X7.2993Y-4.1221
X7.2993Y-4.2557
X7.3661Y-2.559
X7.3661Y-2.748
X7.3661Y-4.0944
X7.3661Y-4.2834
X7.433Y-2.5867
X7.433Y-2.7203
X7.433Y-4.1221
X7.433Y-4.2557
X7.4606Y-2.6535
X7.4606Y-4.1889
T5
X5.9402Y-4.2441
X5.9402Y-4.3441
X6.0402Y-4.2441
X6.0402Y-4.3441
X6.1402Y-4.2441
X6.1402Y-4.3441
X6.2402Y-4.2441
X6.2402Y-4.3441
X6.3402Y-4.2441
X6.3402Y-4.3441
T6
X7.6028Y-2.7689
X7.6028Y-2.9689
X7.6028Y-3.1492
X7.6028Y-3.3492
X7.633Y-3.7497
X7.7028Y-2.8689
X7.7028Y-3.2492
X7.8028Y-2.7689
X7.8028Y-2.9689
X7.8028Y-3.1492
X7.8028Y-3.3492
T7
X7.5031Y-3.6198
X7.5031Y-3.8796
X7.7629Y-3.6198
X7.7629Y-3.8796
T8
X4.2953Y-2.6535
X4.2953Y-4.1889
X7.3661Y-2.6535
X7.3661Y-4.1889
T4
G00X3.8906Y-3.2453
M15
G01X3.8592Y-3.2453
M16
G05
G00X3.8906Y-3.5854
M15
G01X3.8592Y-3.5854
M16
G05
G00X4.0611Y-3.2453
M15
G01X4.0178Y-3.2453
M16
G05
G00X4.0611Y-3.5854
M15
G01X4.0178Y-3.5854
M16
G05
M30
