%TF.GenerationSoftware,KiCad,Pcbnew,9.0.4*%
%TF.CreationDate,2025-10-06T20:14:37-04:00*%
%TF.ProjectId,arb,6172622e-6b69-4636-9164-5f7063625858,rev?*%
%TF.SameCoordinates,Original*%
%TF.FileFunction,Paste,Bot*%
%TF.FilePolarity,Positive*%
%FSLAX46Y46*%
G04 Gerber Fmt 4.6, Leading zero omitted, Abs format (unit mm)*
G04 Created by KiCad (PCBNEW 9.0.4) date 2025-10-06 20:14:37*
%MOMM*%
%LPD*%
G01*
G04 APERTURE LIST*
G04 Aperture macros list*
%AMRoundRect*
0 Rectangle with rounded corners*
0 $1 Rounding radius*
0 $2 $3 $4 $5 $6 $7 $8 $9 X,Y pos of 4 corners*
0 Add a 4 corners polygon primitive as box body*
4,1,4,$2,$3,$4,$5,$6,$7,$8,$9,$2,$3,0*
0 Add four circle primitives for the rounded corners*
1,1,$1+$1,$2,$3*
1,1,$1+$1,$4,$5*
1,1,$1+$1,$6,$7*
1,1,$1+$1,$8,$9*
0 Add four rect primitives between the rounded corners*
20,1,$1+$1,$2,$3,$4,$5,0*
20,1,$1+$1,$4,$5,$6,$7,0*
20,1,$1+$1,$6,$7,$8,$9,0*
20,1,$1+$1,$8,$9,$2,$3,0*%
G04 Aperture macros list end*
%ADD10RoundRect,0.100000X-0.100000X0.350000X-0.100000X-0.350000X0.100000X-0.350000X0.100000X0.350000X0*%
%ADD11RoundRect,0.200000X0.200000X0.275000X-0.200000X0.275000X-0.200000X-0.275000X0.200000X-0.275000X0*%
%ADD12RoundRect,0.225000X-0.250000X0.225000X-0.250000X-0.225000X0.250000X-0.225000X0.250000X0.225000X0*%
%ADD13RoundRect,0.200000X0.275000X-0.200000X0.275000X0.200000X-0.275000X0.200000X-0.275000X-0.200000X0*%
%ADD14RoundRect,0.225000X0.225000X0.250000X-0.225000X0.250000X-0.225000X-0.250000X0.225000X-0.250000X0*%
%ADD15RoundRect,0.212500X-0.212500X-0.787500X0.212500X-0.787500X0.212500X0.787500X-0.212500X0.787500X0*%
%ADD16RoundRect,0.200000X-0.200000X-0.275000X0.200000X-0.275000X0.200000X0.275000X-0.200000X0.275000X0*%
%ADD17RoundRect,0.127000X-1.208000X-1.143000X1.208000X-1.143000X1.208000X1.143000X-1.208000X1.143000X0*%
%ADD18RoundRect,0.076200X-0.304800X-0.558800X0.304800X-0.558800X0.304800X0.558800X-0.304800X0.558800X0*%
%ADD19RoundRect,0.150000X0.150000X-0.825000X0.150000X0.825000X-0.150000X0.825000X-0.150000X-0.825000X0*%
%ADD20RoundRect,0.225000X-0.225000X-0.250000X0.225000X-0.250000X0.225000X0.250000X-0.225000X0.250000X0*%
%ADD21RoundRect,0.127000X1.208000X1.143000X-1.208000X1.143000X-1.208000X-1.143000X1.208000X-1.143000X0*%
%ADD22RoundRect,0.076200X0.304800X0.558800X-0.304800X0.558800X-0.304800X-0.558800X0.304800X-0.558800X0*%
%ADD23RoundRect,0.225000X0.250000X-0.225000X0.250000X0.225000X-0.250000X0.225000X-0.250000X-0.225000X0*%
%ADD24RoundRect,0.218750X0.218750X0.256250X-0.218750X0.256250X-0.218750X-0.256250X0.218750X-0.256250X0*%
%ADD25RoundRect,0.218750X-0.256250X0.218750X-0.256250X-0.218750X0.256250X-0.218750X0.256250X0.218750X0*%
%ADD26RoundRect,0.200000X-0.275000X0.200000X-0.275000X-0.200000X0.275000X-0.200000X0.275000X0.200000X0*%
%ADD27RoundRect,0.100000X0.100000X-0.637500X0.100000X0.637500X-0.100000X0.637500X-0.100000X-0.637500X0*%
%ADD28RoundRect,0.150000X-0.150000X0.512500X-0.150000X-0.512500X0.150000X-0.512500X0.150000X0.512500X0*%
%ADD29RoundRect,0.125000X0.125000X-0.537500X0.125000X0.537500X-0.125000X0.537500X-0.125000X-0.537500X0*%
%ADD30RoundRect,0.150000X0.825000X0.150000X-0.825000X0.150000X-0.825000X-0.150000X0.825000X-0.150000X0*%
%ADD31RoundRect,0.207500X-0.277500X-0.207500X0.277500X-0.207500X0.277500X0.207500X-0.277500X0.207500X0*%
%ADD32RoundRect,0.150000X-0.737500X-0.150000X0.737500X-0.150000X0.737500X0.150000X-0.737500X0.150000X0*%
%ADD33RoundRect,0.165000X-0.165000X-0.165000X0.165000X-0.165000X0.165000X0.165000X-0.165000X0.165000X0*%
%ADD34RoundRect,0.062500X-0.325000X-0.062500X0.325000X-0.062500X0.325000X0.062500X-0.325000X0.062500X0*%
%ADD35RoundRect,0.062500X-0.062500X-0.325000X0.062500X-0.325000X0.062500X0.325000X-0.062500X0.325000X0*%
%ADD36RoundRect,0.150000X0.587500X0.150000X-0.587500X0.150000X-0.587500X-0.150000X0.587500X-0.150000X0*%
G04 APERTURE END LIST*
D10*
%TO.C,U22*%
X167500000Y-92650000D03*
X168150000Y-92650000D03*
X168800000Y-92650000D03*
X168800000Y-94850000D03*
X168150000Y-94850000D03*
X167500000Y-94850000D03*
%TD*%
D11*
%TO.C,R63*%
X145900000Y-103750000D03*
X144250000Y-103750000D03*
%TD*%
D12*
%TO.C,C108*%
X181025000Y-102637500D03*
X181025000Y-104187500D03*
%TD*%
D13*
%TO.C,R12*%
X118320000Y-86887500D03*
X118320000Y-85237500D03*
%TD*%
D12*
%TO.C,C72*%
X124150000Y-75650000D03*
X124150000Y-77200000D03*
%TD*%
D13*
%TO.C,R82*%
X165500000Y-108837500D03*
X165500000Y-107187500D03*
%TD*%
%TO.C,R73*%
X141750000Y-87000000D03*
X141750000Y-85350000D03*
%TD*%
D14*
%TO.C,C100*%
X169775000Y-76595000D03*
X168225000Y-76595000D03*
%TD*%
D15*
%TO.C,L1*%
X107920000Y-89300000D03*
X109580000Y-89300000D03*
%TD*%
D13*
%TO.C,R9*%
X114070000Y-92137500D03*
X114070000Y-90487500D03*
%TD*%
D12*
%TO.C,C25*%
X127475000Y-80750000D03*
X127475000Y-82300000D03*
%TD*%
D16*
%TO.C,R61*%
X141100000Y-103750000D03*
X142750000Y-103750000D03*
%TD*%
D12*
%TO.C,C76*%
X122650000Y-75650000D03*
X122650000Y-77200000D03*
%TD*%
D17*
%TO.C,D3*%
X116674000Y-82000000D03*
D18*
X119025000Y-82000000D03*
%TD*%
D13*
%TO.C,R75*%
X156110000Y-72967500D03*
X156110000Y-71317500D03*
%TD*%
D19*
%TO.C,U19*%
X145520000Y-93950000D03*
X144250000Y-93950000D03*
X142980000Y-93950000D03*
X141710000Y-93950000D03*
X141710000Y-89000000D03*
X142980000Y-89000000D03*
X144250000Y-89000000D03*
X145520000Y-89000000D03*
%TD*%
D20*
%TO.C,C95*%
X142750000Y-102250000D03*
X144300000Y-102250000D03*
%TD*%
D21*
%TO.C,D2*%
X111183500Y-92800000D03*
D22*
X108832500Y-92800000D03*
%TD*%
D16*
%TO.C,R70*%
X168925000Y-82425000D03*
X170575000Y-82425000D03*
%TD*%
%TO.C,R64*%
X170375000Y-87250000D03*
X172025000Y-87250000D03*
%TD*%
D23*
%TO.C,C19*%
X115570000Y-93862500D03*
X115570000Y-92312500D03*
%TD*%
D24*
%TO.C,L2*%
X118962500Y-79750000D03*
X117387500Y-79750000D03*
%TD*%
D25*
%TO.C,L3*%
X121175000Y-74062500D03*
X121175000Y-75637500D03*
%TD*%
D13*
%TO.C,R68*%
X172000000Y-84075000D03*
X172000000Y-82425000D03*
%TD*%
D20*
%TO.C,C109*%
X168225000Y-110512500D03*
X169775000Y-110512500D03*
%TD*%
D12*
%TO.C,C30*%
X130475000Y-80750000D03*
X130475000Y-82300000D03*
%TD*%
D16*
%TO.C,R76*%
X171800000Y-94862500D03*
X173450000Y-94862500D03*
%TD*%
D13*
%TO.C,R7*%
X117070000Y-99120000D03*
X117070000Y-97470000D03*
%TD*%
%TO.C,R15*%
X124470000Y-82362500D03*
X124470000Y-80712500D03*
%TD*%
D12*
%TO.C,C102*%
X153275000Y-74725000D03*
X153275000Y-76275000D03*
%TD*%
D26*
%TO.C,R97*%
X142500000Y-70475000D03*
X142500000Y-72125000D03*
%TD*%
D16*
%TO.C,R10*%
X117320000Y-88312500D03*
X118970000Y-88312500D03*
%TD*%
D12*
%TO.C,C32*%
X131975000Y-80750000D03*
X131975000Y-82300000D03*
%TD*%
D23*
%TO.C,C31*%
X120050000Y-93575000D03*
X120050000Y-92025000D03*
%TD*%
D13*
%TO.C,R53*%
X130800000Y-89575000D03*
X130800000Y-87925000D03*
%TD*%
D23*
%TO.C,C20*%
X119820000Y-86842500D03*
X119820000Y-85292500D03*
%TD*%
D11*
%TO.C,R88*%
X163575000Y-79800000D03*
X161925000Y-79800000D03*
%TD*%
D13*
%TO.C,R67*%
X173550000Y-84075000D03*
X173550000Y-82425000D03*
%TD*%
%TO.C,R52*%
X133200000Y-89575000D03*
X133200000Y-87925000D03*
%TD*%
D11*
%TO.C,R72*%
X166575000Y-78250000D03*
X164925000Y-78250000D03*
%TD*%
%TO.C,R91*%
X150325000Y-81050000D03*
X148675000Y-81050000D03*
%TD*%
D12*
%TO.C,C23*%
X125967500Y-80750000D03*
X125967500Y-82300000D03*
%TD*%
D23*
%TO.C,C24*%
X124570000Y-93550000D03*
X124570000Y-92000000D03*
%TD*%
D12*
%TO.C,C105*%
X173375000Y-99375000D03*
X173375000Y-100925000D03*
%TD*%
D26*
%TO.C,R95*%
X147000000Y-70475000D03*
X147000000Y-72125000D03*
%TD*%
D11*
%TO.C,R62*%
X175225000Y-87250000D03*
X173575000Y-87250000D03*
%TD*%
D23*
%TO.C,C97*%
X145500000Y-87025000D03*
X145500000Y-85475000D03*
%TD*%
%TO.C,C22*%
X118570000Y-93575000D03*
X118570000Y-92025000D03*
%TD*%
D27*
%TO.C,U21*%
X154200000Y-73000000D03*
X153550000Y-73000000D03*
X152900000Y-73000000D03*
X152250000Y-73000000D03*
X151600000Y-73000000D03*
X150950000Y-73000000D03*
X150300000Y-73000000D03*
X150300000Y-67275000D03*
X150950000Y-67275000D03*
X151600000Y-67275000D03*
X152250000Y-67275000D03*
X152900000Y-67275000D03*
X153550000Y-67275000D03*
X154200000Y-67275000D03*
%TD*%
D23*
%TO.C,C113*%
X153000000Y-91550000D03*
X153000000Y-90000000D03*
%TD*%
D13*
%TO.C,R8*%
X114070000Y-95137500D03*
X114070000Y-93487500D03*
%TD*%
D12*
%TO.C,C107*%
X179525000Y-102637500D03*
X179525000Y-104187500D03*
%TD*%
D28*
%TO.C,U3*%
X101650000Y-95362500D03*
X102600000Y-95362500D03*
X103550000Y-95362500D03*
X103550000Y-97637500D03*
X101650000Y-97637500D03*
%TD*%
D23*
%TO.C,C103*%
X165856560Y-92650000D03*
X165856560Y-91100000D03*
%TD*%
D20*
%TO.C,C15*%
X107225000Y-87300000D03*
X108775000Y-87300000D03*
%TD*%
D12*
%TO.C,C17*%
X117070000Y-94537500D03*
X117070000Y-96087500D03*
%TD*%
%TO.C,C99*%
X140827500Y-96150000D03*
X140827500Y-97700000D03*
%TD*%
D13*
%TO.C,R11*%
X115570000Y-96887500D03*
X115570000Y-95237500D03*
%TD*%
D27*
%TO.C,U26*%
X154450000Y-99412500D03*
X153800000Y-99412500D03*
X153150000Y-99412500D03*
X152500000Y-99412500D03*
X151850000Y-99412500D03*
X151200000Y-99412500D03*
X150550000Y-99412500D03*
X150550000Y-93687500D03*
X151200000Y-93687500D03*
X151850000Y-93687500D03*
X152500000Y-93687500D03*
X153150000Y-93687500D03*
X153800000Y-93687500D03*
X154450000Y-93687500D03*
%TD*%
D12*
%TO.C,C114*%
X153250000Y-101475000D03*
X153250000Y-103025000D03*
%TD*%
D23*
%TO.C,C101*%
X153250000Y-65500000D03*
X153250000Y-63950000D03*
%TD*%
D26*
%TO.C,R6*%
X117070000Y-91412500D03*
X117070000Y-93062500D03*
%TD*%
D29*
%TO.C,U24*%
X181475000Y-100687500D03*
X180825000Y-100687500D03*
X180175000Y-100687500D03*
X179525000Y-100687500D03*
X179525000Y-98412500D03*
X180175000Y-98412500D03*
X180825000Y-98412500D03*
X181475000Y-98412500D03*
%TD*%
D11*
%TO.C,R85*%
X177325000Y-108012500D03*
X175675000Y-108012500D03*
%TD*%
%TO.C,R74*%
X162325000Y-73750000D03*
X160675000Y-73750000D03*
%TD*%
D12*
%TO.C,C21*%
X121875000Y-83775000D03*
X121875000Y-85325000D03*
%TD*%
D13*
%TO.C,R71*%
X139000000Y-91650000D03*
X139000000Y-90000000D03*
%TD*%
%TO.C,R84*%
X184025000Y-102337500D03*
X184025000Y-100687500D03*
%TD*%
D30*
%TO.C,U20*%
X169250000Y-71190000D03*
X169250000Y-72460000D03*
X169250000Y-73730000D03*
X169250000Y-75000000D03*
X164300000Y-75000000D03*
X164300000Y-73730000D03*
X164300000Y-72460000D03*
X164300000Y-71190000D03*
%TD*%
D11*
%TO.C,R86*%
X185600000Y-95243000D03*
X183950000Y-95243000D03*
%TD*%
D30*
%TO.C,U25*%
X157475000Y-78645000D03*
X157475000Y-79915000D03*
X157475000Y-81185000D03*
X157475000Y-82455000D03*
X152525000Y-82455000D03*
X152525000Y-81185000D03*
X152525000Y-79915000D03*
X152525000Y-78645000D03*
%TD*%
D26*
%TO.C,R81*%
X175500000Y-97225000D03*
X175500000Y-98875000D03*
%TD*%
D23*
%TO.C,C26*%
X123070000Y-93550000D03*
X123070000Y-92000000D03*
%TD*%
D11*
%TO.C,R92*%
X158165000Y-101692500D03*
X156515000Y-101692500D03*
%TD*%
D20*
%TO.C,C110*%
X184050000Y-93775000D03*
X185600000Y-93775000D03*
%TD*%
D12*
%TO.C,C106*%
X164000000Y-107237500D03*
X164000000Y-108787500D03*
%TD*%
D11*
%TO.C,R90*%
X154425000Y-85300000D03*
X152775000Y-85300000D03*
%TD*%
D26*
%TO.C,R13*%
X123350000Y-83725000D03*
X123350000Y-85375000D03*
%TD*%
%TO.C,R101*%
X144000000Y-70475000D03*
X144000000Y-72125000D03*
%TD*%
D14*
%TO.C,C104*%
X164275000Y-96717500D03*
X162725000Y-96717500D03*
%TD*%
D16*
%TO.C,R79*%
X161000000Y-99550000D03*
X162650000Y-99550000D03*
%TD*%
D26*
%TO.C,R14*%
X121875000Y-86700000D03*
X121875000Y-88350000D03*
%TD*%
%TO.C,R89*%
X160500000Y-78150000D03*
X160500000Y-79800000D03*
%TD*%
%TO.C,R17*%
X133500000Y-79050000D03*
X133500000Y-80700000D03*
%TD*%
D13*
%TO.C,R66*%
X144250000Y-100825000D03*
X144250000Y-99175000D03*
%TD*%
D31*
%TO.C,U23*%
X168300000Y-97687500D03*
X168300000Y-98717500D03*
X168300000Y-99747500D03*
X169500000Y-97687500D03*
X169500000Y-98717500D03*
X169500000Y-99747500D03*
D32*
X166337500Y-100622500D03*
X166337500Y-99352500D03*
X166337500Y-98082500D03*
X166337500Y-96812500D03*
X171462500Y-96812500D03*
X171462500Y-98082500D03*
X171462500Y-99352500D03*
X171462500Y-100622500D03*
%TD*%
D11*
%TO.C,R87*%
X154432500Y-86800000D03*
X152782500Y-86800000D03*
%TD*%
D13*
%TO.C,R65*%
X142750000Y-100825000D03*
X142750000Y-99175000D03*
%TD*%
D12*
%TO.C,C112*%
X158500000Y-84160000D03*
X158500000Y-85710000D03*
%TD*%
D14*
%TO.C,C96*%
X173595000Y-85600000D03*
X172045000Y-85600000D03*
%TD*%
%TO.C,C16*%
X110275000Y-85800000D03*
X108725000Y-85800000D03*
%TD*%
%TO.C,C98*%
X161775000Y-71990000D03*
X160225000Y-71990000D03*
%TD*%
D26*
%TO.C,R5*%
X110250000Y-82725000D03*
X110250000Y-84375000D03*
%TD*%
D20*
%TO.C,C10*%
X102125000Y-99300000D03*
X103675000Y-99300000D03*
%TD*%
D33*
%TO.C,U7*%
X113000000Y-85730000D03*
X113000000Y-86550000D03*
X113000000Y-87370000D03*
X113820000Y-85730000D03*
X113820000Y-86550000D03*
X113820000Y-87370000D03*
X114640000Y-85730000D03*
X114640000Y-86550000D03*
X114640000Y-87370000D03*
D34*
X111832500Y-87800000D03*
X111832500Y-87300000D03*
X111832500Y-86800000D03*
X111832500Y-86300000D03*
X111832500Y-85800000D03*
X111832500Y-85300000D03*
D35*
X112570000Y-84562500D03*
X113070000Y-84562500D03*
X113570000Y-84562500D03*
X114070000Y-84562500D03*
X114570000Y-84562500D03*
X115070000Y-84562500D03*
D34*
X115807500Y-85300000D03*
X115807500Y-85800000D03*
X115807500Y-86300000D03*
X115807500Y-86800000D03*
X115807500Y-87300000D03*
X115807500Y-87800000D03*
D35*
X115070000Y-88537500D03*
X114570000Y-88537500D03*
X114070000Y-88537500D03*
X113570000Y-88537500D03*
X113070000Y-88537500D03*
X112570000Y-88537500D03*
%TD*%
D26*
%TO.C,R99*%
X145500000Y-70475000D03*
X145500000Y-72125000D03*
%TD*%
D16*
%TO.C,R77*%
X171800000Y-93012500D03*
X173450000Y-93012500D03*
%TD*%
D36*
%TO.C,D9*%
X174000000Y-108012500D03*
X174000000Y-109912500D03*
X172125000Y-108962500D03*
%TD*%
D14*
%TO.C,C111*%
X150275000Y-79550000D03*
X148725000Y-79550000D03*
%TD*%
D12*
%TO.C,C27*%
X128975000Y-80750000D03*
X128975000Y-82300000D03*
%TD*%
D20*
%TO.C,C2*%
X101575000Y-93700000D03*
X103125000Y-93700000D03*
%TD*%
D23*
%TO.C,C29*%
X121570000Y-93550000D03*
X121570000Y-92000000D03*
%TD*%
D11*
%TO.C,R83*%
X169825000Y-108962500D03*
X168175000Y-108962500D03*
%TD*%
D12*
%TO.C,C18*%
X120375000Y-88312500D03*
X120375000Y-89862500D03*
%TD*%
D11*
%TO.C,R16*%
X127650000Y-93550000D03*
X126000000Y-93550000D03*
%TD*%
%TO.C,R69*%
X145900000Y-97750000D03*
X144250000Y-97750000D03*
%TD*%
D16*
%TO.C,R78*%
X161000000Y-102060000D03*
X162650000Y-102060000D03*
%TD*%
M02*
