%TF.GenerationSoftware,KiCad,Pcbnew,9.0.4*%
%TF.CreationDate,2025-10-06T20:14:38-04:00*%
%TF.ProjectId,arb,6172622e-6b69-4636-9164-5f7063625858,rev?*%
%TF.SameCoordinates,Original*%
%TF.FileFunction,Profile,NP*%
%FSLAX46Y46*%
G04 Gerber Fmt 4.6, Leading zero omitted, Abs format (unit mm)*
G04 Created by KiCad (PCBNEW 9.0.4) date 2025-10-06 20:14:38*
%MOMM*%
%LPD*%
G01*
G04 APERTURE LIST*
%TA.AperFunction,Profile*%
%ADD10C,0.100000*%
%TD*%
%ADD11C,0.100000*%
G04 APERTURE END LIST*
D10*
X200149000Y-106606608D02*
X200149998Y-86830000D01*
D11*
X200088635Y-66589749D02*
X200085570Y-66582450D01*
X200082428Y-66575177D01*
X200079210Y-66567929D01*
X200075917Y-66560708D01*
X200072549Y-66553515D01*
X200069106Y-66546351D01*
X200065588Y-66539217D01*
X200061997Y-66532114D01*
X200058333Y-66525044D01*
X200054596Y-66518006D01*
X200050786Y-66511004D01*
X200046905Y-66504036D01*
X200042952Y-66497105D01*
X200038929Y-66490212D01*
X200034836Y-66483357D01*
X200030673Y-66476542D01*
X200026441Y-66469767D01*
X200022141Y-66463035D01*
X200017774Y-66456345D01*
X200013339Y-66449698D01*
X200011097Y-66446392D01*
X200008838Y-66443097D01*
X200006563Y-66439813D01*
X200004272Y-66436541D01*
X200001964Y-66433281D01*
X199999641Y-66430032D01*
X199997301Y-66426796D01*
X199994945Y-66423571D01*
X199992574Y-66420359D01*
X199990186Y-66417158D01*
X199987783Y-66413971D01*
X199985364Y-66410796D01*
X199982930Y-66407633D01*
X199980480Y-66404483D01*
X199978015Y-66401347D01*
X199975535Y-66398223D01*
X199973040Y-66395112D01*
X199970529Y-66392015D01*
X199968004Y-66388931D01*
X199965464Y-66385860D01*
X199962909Y-66382803D01*
X199960340Y-66379759D01*
X199957756Y-66376730D01*
X199955157Y-66373714D01*
X199952545Y-66370713D01*
X199949917Y-66367725D01*
X199947276Y-66364752D01*
X199944621Y-66361792D01*
X199941952Y-66358848D01*
X199939268Y-66355918D01*
X199936572Y-66353003D01*
X199933861Y-66350101D01*
X199931138Y-66347216D01*
X199928400Y-66344344D01*
X199925650Y-66341489D01*
X199922885Y-66338648D01*
X199920109Y-66335823D01*
X199917318Y-66333012D01*
X199916716Y-66332409D01*
D10*
X193267870Y-60012262D02*
X102703854Y-60012262D01*
X200150000Y-68570000D02*
X200149000Y-66900000D01*
X101910587Y-111366207D02*
X101910587Y-112694471D01*
D11*
X193828853Y-113255454D02*
X193834381Y-113249871D01*
X193839856Y-113244228D01*
X193845278Y-113238525D01*
X193850646Y-113232762D01*
X193855960Y-113226941D01*
X193861219Y-113221061D01*
X193866423Y-113215123D01*
X193871570Y-113209129D01*
X193876660Y-113203077D01*
X193881693Y-113196970D01*
X193886668Y-113190808D01*
X193891584Y-113184591D01*
X193896441Y-113178320D01*
X193901238Y-113171995D01*
X193905974Y-113165619D01*
X193910650Y-113159190D01*
X193915264Y-113152710D01*
X193919815Y-113146180D01*
X193924303Y-113139601D01*
X193928728Y-113132972D01*
X193933089Y-113126296D01*
X193937386Y-113119572D01*
X193941617Y-113112802D01*
X193945782Y-113105986D01*
X193949881Y-113099126D01*
X193953913Y-113092221D01*
X193957878Y-113085274D01*
X193961774Y-113078284D01*
X193965602Y-113071253D01*
X193969361Y-113064182D01*
X193973050Y-113057071D01*
X193976670Y-113049921D01*
X193980218Y-113042734D01*
X193983696Y-113035510D01*
X193987102Y-113028251D01*
X193990436Y-113020956D01*
X193993698Y-113013628D01*
X193996886Y-113006267D01*
X194000002Y-112998873D01*
X194001532Y-112995165D01*
X194003043Y-112991449D01*
X194004536Y-112987726D01*
X194006011Y-112983995D01*
X194007466Y-112980257D01*
X194008903Y-112976512D01*
X194010322Y-112972759D01*
X194011721Y-112969000D01*
X194013102Y-112965235D01*
X194014464Y-112961462D01*
X194015807Y-112957683D01*
X194017131Y-112953898D01*
X194018436Y-112950106D01*
X194019722Y-112946308D01*
X194020989Y-112942505D01*
X194022236Y-112938695D01*
X194023465Y-112934880D01*
X194024674Y-112931059D01*
X194025864Y-112927232D01*
X194027035Y-112923400D01*
X194028187Y-112919564D01*
X194029319Y-112915721D01*
X194030432Y-112911874D01*
X194031525Y-112908021D01*
X194032599Y-112904165D01*
X194033653Y-112900303D01*
X194034688Y-112896438D01*
X194035704Y-112892567D01*
X194036699Y-112888693D01*
X194037676Y-112884813D01*
X194038632Y-112880931D01*
X194039569Y-112877044D01*
X194040486Y-112873154D01*
X194041384Y-112869260D01*
X194042262Y-112865363D01*
X194043120Y-112861461D01*
X194043958Y-112857558D01*
X194044777Y-112853650D01*
X194045575Y-112849740D01*
X194046354Y-112845826D01*
X194047113Y-112841911D01*
X194047852Y-112837992D01*
X194048571Y-112834071D01*
X194049271Y-112830147D01*
X194049950Y-112826222D01*
X194050610Y-112822293D01*
X194051249Y-112818364D01*
X194051869Y-112814431D01*
X194052468Y-112810499D01*
X194053048Y-112806562D01*
X194053607Y-112802626D01*
X194054147Y-112798687D01*
X194054667Y-112794748D01*
X194055166Y-112790806D01*
X194055646Y-112786865D01*
X194056105Y-112782921D01*
X194056544Y-112778978D01*
X194056964Y-112775032D01*
X194057363Y-112771088D01*
X194057742Y-112767141D01*
X194058101Y-112763196D01*
X194058440Y-112759248D01*
X194058759Y-112755303D01*
X194059058Y-112751355D01*
X194059337Y-112747409D01*
X194059596Y-112743461D01*
X194059835Y-112739516D01*
X194060053Y-112735568D01*
X194060252Y-112731624D01*
X194060430Y-112727678D01*
X194060588Y-112723734D01*
X194060727Y-112719790D01*
X194060845Y-112715848D01*
X194060943Y-112711905D01*
X194061021Y-112707966D01*
X194061079Y-112704025D01*
X194061117Y-112700088D01*
X194061135Y-112696150D01*
X194061137Y-112694471D01*
X95822724Y-106606608D02*
X95822764Y-106614530D01*
X95822884Y-106622458D01*
X95823084Y-106630392D01*
X95823364Y-106638329D01*
X95823724Y-106646268D01*
X95824165Y-106654210D01*
X95824685Y-106662151D01*
X95825286Y-106670092D01*
X95825966Y-106678031D01*
X95826727Y-106685967D01*
X95827567Y-106693899D01*
X95828488Y-106701825D01*
X95829488Y-106709745D01*
X95830568Y-106717657D01*
X95831727Y-106725560D01*
X95832966Y-106733453D01*
X95834284Y-106741335D01*
X95835680Y-106749204D01*
X95837156Y-106757059D01*
X95838710Y-106764900D01*
X95839517Y-106768814D01*
X95840343Y-106772724D01*
X95841189Y-106776630D01*
X95842054Y-106780532D01*
X95842938Y-106784428D01*
X95843843Y-106788320D01*
X95844766Y-106792207D01*
X95845709Y-106796090D01*
X95846671Y-106799967D01*
X95847652Y-106803838D01*
X95848653Y-106807704D01*
X95849673Y-106811565D01*
X95850712Y-106815419D01*
X95851770Y-106819269D01*
X95852847Y-106823111D01*
X95853944Y-106826948D01*
X95855059Y-106830778D01*
X95856193Y-106834602D01*
X95857346Y-106838419D01*
X95858518Y-106842230D01*
X95859709Y-106846033D01*
X95860919Y-106849830D01*
X95862147Y-106853619D01*
X95863394Y-106857402D01*
X95864660Y-106861176D01*
X95865944Y-106864943D01*
X95867246Y-106868702D01*
X95868568Y-106872454D01*
X95869907Y-106876197D01*
X95871265Y-106879933D01*
X95872641Y-106883659D01*
X95874036Y-106887379D01*
X95875448Y-106891089D01*
X95876879Y-106894791D01*
X95878328Y-106898483D01*
X95879795Y-106902168D01*
X95881279Y-106905842D01*
X95882782Y-106909509D01*
X95883089Y-106910251D01*
X200088635Y-106910251D02*
X200091627Y-106902921D01*
X200094547Y-106895554D01*
X200097396Y-106888151D01*
X200100172Y-106880715D01*
X200102875Y-106873245D01*
X200105505Y-106865742D01*
X200108061Y-106858209D01*
X200110543Y-106850645D01*
X200112950Y-106843052D01*
X200115282Y-106835431D01*
X200117539Y-106827783D01*
X200119720Y-106820109D01*
X200121825Y-106812411D01*
X200123853Y-106804689D01*
X200125805Y-106796945D01*
X200127679Y-106789179D01*
X200129476Y-106781394D01*
X200131195Y-106773589D01*
X200132837Y-106765767D01*
X200134400Y-106757928D01*
X200135152Y-106754003D01*
X200135884Y-106750074D01*
X200136597Y-106746142D01*
X200137290Y-106742206D01*
X200137963Y-106738267D01*
X200138617Y-106734324D01*
X200139250Y-106730379D01*
X200139864Y-106726431D01*
X200140458Y-106722480D01*
X200141033Y-106718527D01*
X200141587Y-106714572D01*
X200142121Y-106710614D01*
X200142636Y-106706654D01*
X200143131Y-106702692D01*
X200143605Y-106698729D01*
X200144060Y-106694763D01*
X200144495Y-106690797D01*
X200144910Y-106686828D01*
X200145305Y-106682860D01*
X200145679Y-106678889D01*
X200146034Y-106674918D01*
X200146369Y-106670946D01*
X200146684Y-106666974D01*
X200146979Y-106663000D01*
X200147253Y-106659028D01*
X200147508Y-106655054D01*
X200147742Y-106651081D01*
X200147957Y-106647107D01*
X200148151Y-106643134D01*
X200148326Y-106639161D01*
X200148480Y-106635190D01*
X200148615Y-106631218D01*
X200148729Y-106627248D01*
X200148823Y-106623277D01*
X200148897Y-106619310D01*
X200148951Y-106615342D01*
X200148986Y-106611377D01*
X200149000Y-106607412D01*
X200149000Y-106606608D01*
D10*
X194061137Y-62133793D02*
X194061137Y-60805529D01*
D11*
X198027469Y-66100125D02*
X198009754Y-66100085D01*
X197992032Y-66099965D01*
X197974304Y-66099765D01*
X197956570Y-66099485D01*
X197938831Y-66099125D01*
X197921088Y-66098685D01*
X197903341Y-66098164D01*
X197885590Y-66097564D01*
X197867836Y-66096883D01*
X197850080Y-66096122D01*
X197832321Y-66095282D01*
X197814561Y-66094361D01*
X197796800Y-66093359D01*
X197779038Y-66092278D01*
X197761277Y-66091117D01*
X197743516Y-66089875D01*
X197725756Y-66088553D01*
X197707997Y-66087151D01*
X197690241Y-66085670D01*
X197672487Y-66084108D01*
X197654736Y-66082466D01*
X197636989Y-66080744D01*
X197619246Y-66078942D01*
X197601508Y-66077060D01*
X197583775Y-66075098D01*
X197566048Y-66073057D01*
X197548327Y-66070935D01*
X197530612Y-66068734D01*
X197512905Y-66066454D01*
X197495206Y-66064093D01*
X197477516Y-66061653D01*
X197459834Y-66059133D01*
X197442162Y-66056534D01*
X197424499Y-66053856D01*
X197406847Y-66051098D01*
X197389206Y-66048261D01*
X197371577Y-66045345D01*
X197353960Y-66042350D01*
X197336355Y-66039276D01*
X197318764Y-66036123D01*
X197301186Y-66032891D01*
X197283623Y-66029580D01*
X197266074Y-66026191D01*
X197248540Y-66022723D01*
X197239779Y-66020960D01*
X197231023Y-66019177D01*
X197222270Y-66017374D01*
X197213521Y-66015552D01*
X197204777Y-66013710D01*
X197196037Y-66011849D01*
X197187301Y-66009969D01*
X197178569Y-66008068D01*
X197169842Y-66006149D01*
X197161120Y-66004209D01*
X197152402Y-66002251D01*
X197143689Y-66000273D01*
X197134981Y-65998275D01*
X197126277Y-65996258D01*
X197117579Y-65994222D01*
X197108885Y-65992166D01*
X197100196Y-65990091D01*
X197091512Y-65987997D01*
X197082834Y-65985883D01*
X197074160Y-65983750D01*
X197065492Y-65981597D01*
X197056829Y-65979426D01*
X197048172Y-65977235D01*
X197039520Y-65975024D01*
X197030873Y-65972795D01*
X197022232Y-65970546D01*
X197013597Y-65968278D01*
X197004967Y-65965991D01*
X196996344Y-65963685D01*
X196987725Y-65961360D01*
X196979114Y-65959015D01*
X196970507Y-65956651D01*
X196961908Y-65954269D01*
X196953313Y-65951867D01*
X196944726Y-65949446D01*
X196936144Y-65947006D01*
X196927569Y-65944548D01*
X196918999Y-65942070D01*
X196910437Y-65939573D01*
X196901881Y-65937057D01*
X196893332Y-65934522D01*
X196884788Y-65931969D01*
X196876252Y-65929396D01*
X196867722Y-65926805D01*
X196859200Y-65924195D01*
X196850683Y-65921566D01*
X196842175Y-65918918D01*
X196833672Y-65916251D01*
X196825177Y-65913566D01*
X196816689Y-65910862D01*
X196808209Y-65908139D01*
X196799734Y-65905397D01*
X196791269Y-65902637D01*
X196782809Y-65899858D01*
X196774358Y-65897061D01*
X196765913Y-65894245D01*
X196757477Y-65891410D01*
X196749047Y-65888557D01*
X196740627Y-65885685D01*
X196732212Y-65882795D01*
X196723807Y-65879886D01*
X196715408Y-65876959D01*
X196707018Y-65874013D01*
X196698635Y-65871049D01*
X196690262Y-65868067D01*
X196681895Y-65865066D01*
X196673537Y-65862047D01*
X196665186Y-65859009D01*
X196656845Y-65855954D01*
X196648511Y-65852879D01*
X196640187Y-65849787D01*
X196631869Y-65846677D01*
X196623562Y-65843548D01*
X196615261Y-65840401D01*
X196606971Y-65837236D01*
X196598688Y-65834053D01*
X196590415Y-65830852D01*
X196582149Y-65827632D01*
X196573893Y-65824395D01*
X196565645Y-65821140D01*
X196557407Y-65817867D01*
X196549177Y-65814575D01*
X196540957Y-65811266D01*
X196532745Y-65807939D01*
X196524544Y-65804594D01*
X196516350Y-65801231D01*
X196509254Y-65798301D01*
X100749168Y-64938706D02*
X100736627Y-64951191D01*
X100724024Y-64963624D01*
X100711360Y-64976005D01*
X100698636Y-64988333D01*
X100685851Y-65000609D01*
X100673005Y-65012832D01*
X100660100Y-65025001D01*
X100647136Y-65037116D01*
X100634113Y-65049177D01*
X100621030Y-65061183D01*
X100607890Y-65073134D01*
X100594691Y-65085030D01*
X100581435Y-65096870D01*
X100568122Y-65108654D01*
X100554752Y-65120382D01*
X100541325Y-65132053D01*
X100527842Y-65143666D01*
X100514303Y-65155222D01*
X100500709Y-65166720D01*
X100487060Y-65178160D01*
X100473356Y-65189541D01*
X100459598Y-65200864D01*
X100445787Y-65212127D01*
X100431921Y-65223330D01*
X100418003Y-65234473D01*
X100404033Y-65245556D01*
X100390010Y-65256579D01*
X100375935Y-65267540D01*
X100361809Y-65278440D01*
X100347632Y-65289278D01*
X100333404Y-65300054D01*
X100319126Y-65310768D01*
X100304799Y-65321419D01*
X100290422Y-65332007D01*
X100275996Y-65342531D01*
X100261522Y-65352992D01*
X100247001Y-65363389D01*
X100232431Y-65373722D01*
X100217814Y-65383989D01*
X100203151Y-65394192D01*
X100188442Y-65404330D01*
X100173686Y-65414402D01*
X100158886Y-65424408D01*
X100144040Y-65434348D01*
X100136601Y-65439293D01*
X100129150Y-65444221D01*
X100121689Y-65449133D01*
X100114216Y-65454028D01*
X100106733Y-65458906D01*
X100099239Y-65463767D01*
X100091734Y-65468611D01*
X100084218Y-65473439D01*
X100076692Y-65478249D01*
X100069155Y-65483043D01*
X100061608Y-65487820D01*
X100054049Y-65492579D01*
X100046481Y-65497322D01*
X100038902Y-65502047D01*
X100031313Y-65506756D01*
X100023714Y-65511447D01*
X100016105Y-65516121D01*
X100008485Y-65520777D01*
X100000855Y-65525417D01*
X99993216Y-65530039D01*
X99985566Y-65534643D01*
X99977906Y-65539231D01*
X99970237Y-65543801D01*
X99962558Y-65548353D01*
X99954869Y-65552888D01*
X99947170Y-65557406D01*
X99939462Y-65561906D01*
X99931744Y-65566388D01*
X99924017Y-65570853D01*
X99916280Y-65575300D01*
X99908534Y-65579729D01*
X99900778Y-65584141D01*
X99893014Y-65588535D01*
X99885240Y-65592911D01*
X99877457Y-65597269D01*
X99869665Y-65601610D01*
X99861864Y-65605932D01*
X99854053Y-65610237D01*
X99846235Y-65614524D01*
X99838407Y-65618793D01*
X99830570Y-65623043D01*
X99822725Y-65627276D01*
X99814871Y-65631491D01*
X99807008Y-65635688D01*
X99799137Y-65639866D01*
X99791257Y-65644027D01*
X99783369Y-65648169D01*
X99775472Y-65652293D01*
X99767568Y-65656399D01*
X99759654Y-65660487D01*
X99751734Y-65664556D01*
X99743804Y-65668607D01*
X99735867Y-65672639D01*
X99727921Y-65676654D01*
X99719968Y-65680650D01*
X99712006Y-65684627D01*
X99704038Y-65688586D01*
X99696060Y-65692527D01*
X99688076Y-65696449D01*
X99680083Y-65700353D01*
X99672084Y-65704237D01*
X99664076Y-65708104D01*
X99656062Y-65711952D01*
X99648039Y-65715781D01*
X99640010Y-65719591D01*
X99631972Y-65723383D01*
X99623928Y-65727156D01*
X99615876Y-65730911D01*
X99607819Y-65734646D01*
X99599752Y-65738363D01*
X99591680Y-65742061D01*
X99583600Y-65745741D01*
X99575515Y-65749401D01*
X99567421Y-65753043D01*
X99559321Y-65756665D01*
X99551214Y-65760269D01*
X99543101Y-65763853D01*
X99534981Y-65767420D01*
X99526855Y-65770966D01*
X99518721Y-65774494D01*
X99510583Y-65778003D01*
X99502436Y-65781493D01*
X99494285Y-65784963D01*
X99486126Y-65788415D01*
X99477963Y-65791847D01*
X99469791Y-65795261D01*
X99462470Y-65798301D01*
X194061137Y-111366207D02*
X194061177Y-111348492D01*
X194061297Y-111330770D01*
X194061497Y-111313042D01*
X194061777Y-111295308D01*
X194062137Y-111277569D01*
X194062577Y-111259826D01*
X194063098Y-111242079D01*
X194063698Y-111224328D01*
X194064379Y-111206574D01*
X194065140Y-111188818D01*
X194065980Y-111171059D01*
X194066901Y-111153299D01*
X194067903Y-111135538D01*
X194068984Y-111117776D01*
X194070145Y-111100015D01*
X194071387Y-111082254D01*
X194072709Y-111064494D01*
X194074111Y-111046735D01*
X194075592Y-111028979D01*
X194077154Y-111011225D01*
X194078796Y-110993474D01*
X194080518Y-110975727D01*
X194082320Y-110957984D01*
X194084202Y-110940246D01*
X194086164Y-110922513D01*
X194088205Y-110904786D01*
X194090327Y-110887065D01*
X194092528Y-110869350D01*
X194094808Y-110851643D01*
X194097169Y-110833944D01*
X194099609Y-110816254D01*
X194102129Y-110798572D01*
X194104728Y-110780900D01*
X194107406Y-110763237D01*
X194110164Y-110745585D01*
X194113001Y-110727944D01*
X194115917Y-110710315D01*
X194118912Y-110692698D01*
X194121986Y-110675093D01*
X194125139Y-110657502D01*
X194128371Y-110639924D01*
X194131682Y-110622361D01*
X194135071Y-110604812D01*
X194138539Y-110587278D01*
X194140302Y-110578517D01*
X194142085Y-110569761D01*
X194143888Y-110561008D01*
X194145710Y-110552259D01*
X194147552Y-110543515D01*
X194149413Y-110534775D01*
X194151293Y-110526039D01*
X194153194Y-110517307D01*
X194155113Y-110508580D01*
X194157053Y-110499858D01*
X194159011Y-110491140D01*
X194160989Y-110482427D01*
X194162987Y-110473719D01*
X194165004Y-110465015D01*
X194167040Y-110456317D01*
X194169096Y-110447623D01*
X194171171Y-110438934D01*
X194173265Y-110430250D01*
X194175379Y-110421572D01*
X194177512Y-110412898D01*
X194179665Y-110404230D01*
X194181836Y-110395567D01*
X194184027Y-110386910D01*
X194186238Y-110378258D01*
X194188467Y-110369611D01*
X194190716Y-110360970D01*
X194192984Y-110352335D01*
X194195271Y-110343705D01*
X194197577Y-110335082D01*
X194199902Y-110326463D01*
X194202247Y-110317852D01*
X194204611Y-110309245D01*
X194206993Y-110300646D01*
X194209395Y-110292051D01*
X194211816Y-110283464D01*
X194214256Y-110274882D01*
X194216714Y-110266307D01*
X194219192Y-110257737D01*
X194221689Y-110249175D01*
X194224205Y-110240619D01*
X194226740Y-110232070D01*
X194229293Y-110223526D01*
X194231866Y-110214990D01*
X194234457Y-110206460D01*
X194237067Y-110197938D01*
X194239696Y-110189421D01*
X194242344Y-110180913D01*
X194245011Y-110172410D01*
X194247696Y-110163915D01*
X194250400Y-110155427D01*
X194253123Y-110146947D01*
X194255865Y-110138472D01*
X194258625Y-110130007D01*
X194261404Y-110121547D01*
X194264201Y-110113096D01*
X194267017Y-110104651D01*
X194269852Y-110096215D01*
X194272705Y-110087785D01*
X194275577Y-110079365D01*
X194278467Y-110070950D01*
X194281376Y-110062545D01*
X194284303Y-110054146D01*
X194287249Y-110045756D01*
X194290213Y-110037373D01*
X194293195Y-110029000D01*
X194296196Y-110020633D01*
X194299215Y-110012275D01*
X194302253Y-110003924D01*
X194305308Y-109995583D01*
X194308383Y-109987249D01*
X194311475Y-109978925D01*
X194314585Y-109970607D01*
X194317714Y-109962300D01*
X194320861Y-109953999D01*
X194324026Y-109945709D01*
X194327209Y-109937426D01*
X194330410Y-109929153D01*
X194333630Y-109920887D01*
X194336867Y-109912631D01*
X194340122Y-109904383D01*
X194343395Y-109896145D01*
X194346687Y-109887915D01*
X194349996Y-109879695D01*
X194353323Y-109871483D01*
X194356668Y-109863282D01*
X194360031Y-109855088D01*
X194362961Y-109847992D01*
X97944255Y-107399875D02*
X97961970Y-107399915D01*
X97979692Y-107400035D01*
X97997420Y-107400235D01*
X98015154Y-107400515D01*
X98032893Y-107400875D01*
X98050636Y-107401315D01*
X98068383Y-107401836D01*
X98086134Y-107402436D01*
X98103888Y-107403117D01*
X98121644Y-107403878D01*
X98139403Y-107404718D01*
X98157163Y-107405639D01*
X98174924Y-107406641D01*
X98192686Y-107407722D01*
X98210447Y-107408883D01*
X98228208Y-107410125D01*
X98245968Y-107411447D01*
X98263727Y-107412849D01*
X98281483Y-107414330D01*
X98299237Y-107415892D01*
X98316988Y-107417534D01*
X98334735Y-107419256D01*
X98352478Y-107421058D01*
X98370216Y-107422940D01*
X98387949Y-107424902D01*
X98405676Y-107426943D01*
X98423397Y-107429065D01*
X98441112Y-107431266D01*
X98458819Y-107433546D01*
X98476518Y-107435907D01*
X98494208Y-107438347D01*
X98511890Y-107440867D01*
X98529562Y-107443466D01*
X98547225Y-107446144D01*
X98564877Y-107448902D01*
X98582518Y-107451739D01*
X98600147Y-107454655D01*
X98617764Y-107457650D01*
X98635369Y-107460724D01*
X98652960Y-107463877D01*
X98670538Y-107467109D01*
X98688101Y-107470420D01*
X98705650Y-107473809D01*
X98723184Y-107477277D01*
X98731945Y-107479040D01*
X98740701Y-107480823D01*
X98749454Y-107482626D01*
X98758203Y-107484448D01*
X98766947Y-107486290D01*
X98775687Y-107488151D01*
X98784423Y-107490031D01*
X98793155Y-107491932D01*
X98801882Y-107493851D01*
X98810604Y-107495791D01*
X98819322Y-107497749D01*
X98828035Y-107499727D01*
X98836743Y-107501725D01*
X98845447Y-107503742D01*
X98854145Y-107505778D01*
X98862839Y-107507834D01*
X98871528Y-107509909D01*
X98880212Y-107512003D01*
X98888890Y-107514117D01*
X98897564Y-107516250D01*
X98906232Y-107518403D01*
X98914895Y-107520574D01*
X98923552Y-107522765D01*
X98932204Y-107524976D01*
X98940851Y-107527205D01*
X98949492Y-107529454D01*
X98958127Y-107531722D01*
X98966757Y-107534009D01*
X98975380Y-107536315D01*
X98983999Y-107538640D01*
X98992610Y-107540985D01*
X99001217Y-107543349D01*
X99009816Y-107545731D01*
X99018411Y-107548133D01*
X99026998Y-107550554D01*
X99035580Y-107552994D01*
X99044155Y-107555452D01*
X99052725Y-107557930D01*
X99061287Y-107560427D01*
X99069843Y-107562943D01*
X99078392Y-107565478D01*
X99086936Y-107568031D01*
X99095472Y-107570604D01*
X99104002Y-107573195D01*
X99112524Y-107575805D01*
X99121041Y-107578434D01*
X99129549Y-107581082D01*
X99138052Y-107583749D01*
X99146547Y-107586434D01*
X99155035Y-107589138D01*
X99163515Y-107591861D01*
X99171990Y-107594603D01*
X99180455Y-107597363D01*
X99188915Y-107600142D01*
X99197366Y-107602939D01*
X99205811Y-107605755D01*
X99214247Y-107608590D01*
X99222677Y-107611443D01*
X99231097Y-107614315D01*
X99239512Y-107617205D01*
X99247917Y-107620114D01*
X99256316Y-107623041D01*
X99264706Y-107625987D01*
X99273089Y-107628951D01*
X99281462Y-107631933D01*
X99289829Y-107634934D01*
X99298187Y-107637953D01*
X99306538Y-107640991D01*
X99314879Y-107644046D01*
X99323213Y-107647121D01*
X99331537Y-107650213D01*
X99339855Y-107653323D01*
X99348162Y-107656452D01*
X99356463Y-107659599D01*
X99364753Y-107662764D01*
X99373036Y-107665947D01*
X99381309Y-107669148D01*
X99389575Y-107672368D01*
X99397831Y-107675605D01*
X99406079Y-107678860D01*
X99414317Y-107682133D01*
X99422547Y-107685425D01*
X99430767Y-107688734D01*
X99438979Y-107692061D01*
X99447180Y-107695406D01*
X99455374Y-107698769D01*
X99462470Y-107701699D01*
X96615991Y-66100125D02*
X96608069Y-66100165D01*
X96600141Y-66100285D01*
X96592207Y-66100485D01*
X96584270Y-66100765D01*
X96576331Y-66101125D01*
X96568389Y-66101566D01*
X96560448Y-66102086D01*
X96552507Y-66102687D01*
X96544568Y-66103367D01*
X96536632Y-66104128D01*
X96528700Y-66104968D01*
X96520774Y-66105889D01*
X96512854Y-66106889D01*
X96504942Y-66107969D01*
X96497039Y-66109128D01*
X96489146Y-66110367D01*
X96481264Y-66111685D01*
X96473395Y-66113081D01*
X96465540Y-66114557D01*
X96457699Y-66116111D01*
X96453785Y-66116918D01*
X96449875Y-66117744D01*
X96445969Y-66118590D01*
X96442067Y-66119455D01*
X96438171Y-66120339D01*
X96434279Y-66121244D01*
X96430392Y-66122167D01*
X96426509Y-66123110D01*
X96422632Y-66124072D01*
X96418761Y-66125053D01*
X96414895Y-66126054D01*
X96411034Y-66127074D01*
X96407180Y-66128113D01*
X96403330Y-66129171D01*
X96399488Y-66130248D01*
X96395651Y-66131345D01*
X96391821Y-66132460D01*
X96387997Y-66133594D01*
X96384180Y-66134747D01*
X96380369Y-66135919D01*
X96376566Y-66137110D01*
X96372769Y-66138320D01*
X96368980Y-66139548D01*
X96365197Y-66140795D01*
X96361423Y-66142061D01*
X96357656Y-66143345D01*
X96353897Y-66144647D01*
X96350145Y-66145969D01*
X96346402Y-66147308D01*
X96342666Y-66148666D01*
X96338940Y-66150042D01*
X96335220Y-66151437D01*
X96331510Y-66152849D01*
X96327808Y-66154280D01*
X96324116Y-66155729D01*
X96320431Y-66157196D01*
X96316757Y-66158680D01*
X96313090Y-66160183D01*
X96312348Y-66160490D01*
X193267870Y-113487738D02*
X193275733Y-113487699D01*
X193283602Y-113487580D01*
X193291476Y-113487382D01*
X193299353Y-113487103D01*
X193307234Y-113486744D01*
X193315117Y-113486305D01*
X193323001Y-113485786D01*
X193330885Y-113485187D01*
X193338770Y-113484507D01*
X193346653Y-113483748D01*
X193354533Y-113482908D01*
X193362411Y-113481988D01*
X193370285Y-113480988D01*
X193378154Y-113479909D01*
X193386017Y-113478749D01*
X193393874Y-113477510D01*
X193401723Y-113476190D01*
X193409563Y-113474792D01*
X193417394Y-113473313D01*
X193425214Y-113471756D01*
X193433022Y-113470119D01*
X193440818Y-113468403D01*
X193448601Y-113466608D01*
X193456369Y-113464734D01*
X193464122Y-113462782D01*
X193471858Y-113460751D01*
X193479577Y-113458643D01*
X193487277Y-113456456D01*
X193494958Y-113454192D01*
X193502619Y-113451851D01*
X193510258Y-113449432D01*
X193517874Y-113446937D01*
X193525467Y-113444365D01*
X193533036Y-113441717D01*
X193540579Y-113438993D01*
X193548096Y-113436194D01*
X193555585Y-113433319D01*
X193563046Y-113430370D01*
X193570478Y-113427346D01*
X193574182Y-113425807D01*
X193577879Y-113424249D01*
X193581567Y-113422673D01*
X193585248Y-113421078D01*
X193588921Y-113419465D01*
X193592585Y-113417833D01*
X193596241Y-113416184D01*
X193599889Y-113414516D01*
X193603528Y-113412831D01*
X193607159Y-113411127D01*
X193610780Y-113409406D01*
X193614393Y-113407666D01*
X193617996Y-113405909D01*
X193621591Y-113404133D01*
X193625176Y-113402341D01*
X193628752Y-113400530D01*
X193632317Y-113398702D01*
X193635874Y-113396856D01*
X193639421Y-113394993D01*
X193642958Y-113393113D01*
X193646484Y-113391215D01*
X193650002Y-113389300D01*
X193653508Y-113387367D01*
X193657004Y-113385418D01*
X193660490Y-113383451D01*
X193663966Y-113381467D01*
X193667430Y-113379467D01*
X193670884Y-113377449D01*
X193674327Y-113375415D01*
X193677759Y-113373364D01*
X193681180Y-113371296D01*
X193684590Y-113369212D01*
X193687988Y-113367111D01*
X193691375Y-113364993D01*
X193694750Y-113362860D01*
X193698115Y-113360709D01*
X193701466Y-113358543D01*
X193704807Y-113356360D01*
X193708135Y-113354162D01*
X193711452Y-113351947D01*
X193714756Y-113349717D01*
X193718048Y-113347470D01*
X193721327Y-113345208D01*
X193724596Y-113342929D01*
X193727850Y-113340636D01*
X193731093Y-113338326D01*
X193734321Y-113336001D01*
X193737539Y-113333660D01*
X193740742Y-113331305D01*
X193743934Y-113328933D01*
X193747111Y-113326547D01*
X193750276Y-113324145D01*
X193753427Y-113321729D01*
X193756565Y-113319297D01*
X193759689Y-113316851D01*
X193762801Y-113314389D01*
X193765898Y-113311914D01*
X193768983Y-113309423D01*
X193772052Y-113306918D01*
X193775109Y-113304397D01*
X193778150Y-113301863D01*
X193781180Y-113299314D01*
X193784193Y-113296752D01*
X193787194Y-113294174D01*
X193790179Y-113291583D01*
X193793151Y-113288976D01*
X193796107Y-113286358D01*
X193799051Y-113283723D01*
X193801978Y-113281077D01*
X193804893Y-113278415D01*
X193807790Y-113275741D01*
X193810675Y-113273052D01*
X193813544Y-113270351D01*
X193816399Y-113267634D01*
X193819237Y-113264906D01*
X193822062Y-113262163D01*
X193824870Y-113259409D01*
X193827665Y-113256639D01*
X193828853Y-113255454D01*
X196509254Y-65798301D02*
X196492915Y-65791492D01*
X196476600Y-65784607D01*
X196460311Y-65777646D01*
X196444046Y-65770608D01*
X196427807Y-65763494D01*
X196411594Y-65756304D01*
X196395409Y-65749039D01*
X196379250Y-65741698D01*
X196363118Y-65734282D01*
X196347015Y-65726791D01*
X196330941Y-65719225D01*
X196314895Y-65711584D01*
X196298879Y-65703869D01*
X196282893Y-65696079D01*
X196266938Y-65688215D01*
X196251013Y-65680278D01*
X196235120Y-65672266D01*
X196219259Y-65664181D01*
X196203430Y-65656023D01*
X196187634Y-65647792D01*
X196171872Y-65639488D01*
X196156143Y-65631111D01*
X196140448Y-65622662D01*
X196124789Y-65614141D01*
X196109164Y-65605547D01*
X196093575Y-65596883D01*
X196078023Y-65588147D01*
X196062507Y-65579339D01*
X196047028Y-65570461D01*
X196031587Y-65561512D01*
X196016183Y-65552493D01*
X196000819Y-65543404D01*
X195985493Y-65534244D01*
X195970207Y-65525015D01*
X195954961Y-65515717D01*
X195939755Y-65506350D01*
X195924590Y-65496914D01*
X195909467Y-65487409D01*
X195894385Y-65477837D01*
X195879346Y-65468196D01*
X195864349Y-65458488D01*
X195849395Y-65448712D01*
X195834485Y-65438869D01*
X195819619Y-65428960D01*
X195812203Y-65423980D01*
X195804798Y-65418984D01*
X195797404Y-65413971D01*
X195790022Y-65408942D01*
X195782650Y-65403896D01*
X195775291Y-65398834D01*
X195767942Y-65393756D01*
X195760606Y-65388661D01*
X195753281Y-65383550D01*
X195745967Y-65378422D01*
X195738665Y-65373278D01*
X195731375Y-65368118D01*
X195724097Y-65362942D01*
X195716830Y-65357750D01*
X195709576Y-65352542D01*
X195702333Y-65347318D01*
X195695103Y-65342078D01*
X195687884Y-65336821D01*
X195680678Y-65331549D01*
X195673483Y-65326261D01*
X195666302Y-65320957D01*
X195659132Y-65315638D01*
X195651975Y-65310302D01*
X195644830Y-65304951D01*
X195637697Y-65299585D01*
X195630577Y-65294202D01*
X195623470Y-65288804D01*
X195616375Y-65283391D01*
X195609293Y-65277962D01*
X195602224Y-65272517D01*
X195595167Y-65267058D01*
X195588123Y-65261582D01*
X195581092Y-65256092D01*
X195574074Y-65250586D01*
X195567069Y-65245065D01*
X195560077Y-65239529D01*
X195553098Y-65233977D01*
X195546132Y-65228411D01*
X195539180Y-65222829D01*
X195532240Y-65217232D01*
X195525314Y-65211621D01*
X195518401Y-65205994D01*
X195511502Y-65200353D01*
X195504616Y-65194696D01*
X195497743Y-65189025D01*
X195490884Y-65183339D01*
X195484039Y-65177639D01*
X195477207Y-65171923D01*
X195470389Y-65166193D01*
X195463584Y-65160448D01*
X195456794Y-65154690D01*
X195450017Y-65148916D01*
X195443254Y-65143128D01*
X195436505Y-65137325D01*
X195429770Y-65131508D01*
X195423049Y-65125677D01*
X195416342Y-65119832D01*
X195409649Y-65113972D01*
X195402971Y-65108098D01*
X195396306Y-65102210D01*
X195389656Y-65096308D01*
X195383020Y-65090391D01*
X195376399Y-65084461D01*
X195369791Y-65078517D01*
X195363199Y-65072559D01*
X195356620Y-65066587D01*
X195350057Y-65060601D01*
X195343507Y-65054601D01*
X195336973Y-65048588D01*
X195330453Y-65042561D01*
X195323948Y-65036521D01*
X195317457Y-65030466D01*
X195310982Y-65024398D01*
X195304521Y-65018316D01*
X195298075Y-65012222D01*
X195291644Y-65006113D01*
X195285228Y-64999992D01*
X195278827Y-64993857D01*
X195272441Y-64987709D01*
X195266070Y-64981547D01*
X195259715Y-64975373D01*
X195253374Y-64969185D01*
X195247049Y-64962985D01*
X195240739Y-64956770D01*
X195234445Y-64950544D01*
X195228165Y-64944303D01*
X195222556Y-64938706D01*
X102142871Y-60244546D02*
X102137343Y-60250129D01*
X102131868Y-60255772D01*
X102126446Y-60261475D01*
X102121078Y-60267238D01*
X102115764Y-60273059D01*
X102110505Y-60278939D01*
X102105301Y-60284877D01*
X102100154Y-60290871D01*
X102095064Y-60296923D01*
X102090031Y-60303030D01*
X102085056Y-60309192D01*
X102080140Y-60315409D01*
X102075283Y-60321680D01*
X102070486Y-60328005D01*
X102065750Y-60334381D01*
X102061074Y-60340810D01*
X102056460Y-60347290D01*
X102051909Y-60353820D01*
X102047421Y-60360399D01*
X102042996Y-60367028D01*
X102038635Y-60373704D01*
X102034338Y-60380428D01*
X102030107Y-60387198D01*
X102025942Y-60394014D01*
X102021843Y-60400874D01*
X102017811Y-60407779D01*
X102013846Y-60414726D01*
X102009950Y-60421716D01*
X102006122Y-60428747D01*
X102002363Y-60435818D01*
X101998674Y-60442929D01*
X101995054Y-60450079D01*
X101991506Y-60457266D01*
X101988028Y-60464490D01*
X101984622Y-60471749D01*
X101981288Y-60479044D01*
X101978026Y-60486372D01*
X101974838Y-60493733D01*
X101971722Y-60501127D01*
X101970192Y-60504835D01*
X101968681Y-60508551D01*
X101967188Y-60512274D01*
X101965713Y-60516005D01*
X101964258Y-60519743D01*
X101962821Y-60523488D01*
X101961402Y-60527241D01*
X101960003Y-60531000D01*
X101958622Y-60534765D01*
X101957260Y-60538538D01*
X101955917Y-60542317D01*
X101954593Y-60546102D01*
X101953288Y-60549894D01*
X101952002Y-60553692D01*
X101950735Y-60557495D01*
X101949488Y-60561305D01*
X101948259Y-60565120D01*
X101947050Y-60568941D01*
X101945860Y-60572768D01*
X101944689Y-60576600D01*
X101943537Y-60580436D01*
X101942405Y-60584279D01*
X101941292Y-60588126D01*
X101940199Y-60591979D01*
X101939125Y-60595835D01*
X101938071Y-60599697D01*
X101937036Y-60603562D01*
X101936020Y-60607433D01*
X101935025Y-60611307D01*
X101934048Y-60615187D01*
X101933092Y-60619069D01*
X101932155Y-60622956D01*
X101931238Y-60626846D01*
X101930340Y-60630740D01*
X101929462Y-60634637D01*
X101928604Y-60638539D01*
X101927766Y-60642442D01*
X101926947Y-60646350D01*
X101926149Y-60650260D01*
X101925370Y-60654174D01*
X101924611Y-60658089D01*
X101923872Y-60662008D01*
X101923153Y-60665929D01*
X101922453Y-60669853D01*
X101921774Y-60673778D01*
X101921114Y-60677707D01*
X101920475Y-60681636D01*
X101919855Y-60685569D01*
X101919256Y-60689501D01*
X101918676Y-60693438D01*
X101918117Y-60697374D01*
X101917577Y-60701313D01*
X101917057Y-60705252D01*
X101916558Y-60709194D01*
X101916078Y-60713135D01*
X101915619Y-60717079D01*
X101915180Y-60721022D01*
X101914760Y-60724968D01*
X101914361Y-60728912D01*
X101913982Y-60732859D01*
X101913623Y-60736804D01*
X101913284Y-60740752D01*
X101912965Y-60744697D01*
X101912666Y-60748645D01*
X101912387Y-60752591D01*
X101912128Y-60756539D01*
X101911889Y-60760484D01*
X101911671Y-60764432D01*
X101911472Y-60768376D01*
X101911294Y-60772322D01*
X101911136Y-60776266D01*
X101910997Y-60780210D01*
X101910879Y-60784152D01*
X101910781Y-60788095D01*
X101910703Y-60792034D01*
X101910645Y-60795975D01*
X101910607Y-60799912D01*
X101910589Y-60803850D01*
X101910587Y-60805529D01*
X101910587Y-112694471D02*
X101910626Y-112702334D01*
X101910745Y-112710203D01*
X101910943Y-112718077D01*
X101911222Y-112725955D01*
X101911581Y-112733835D01*
X101912020Y-112741718D01*
X101912539Y-112749602D01*
X101913139Y-112757487D01*
X101913818Y-112765371D01*
X101914578Y-112773254D01*
X101915417Y-112781135D01*
X101916337Y-112789013D01*
X101917337Y-112796887D01*
X101918417Y-112804756D01*
X101919576Y-112812619D01*
X101920816Y-112820476D01*
X101922135Y-112828325D01*
X101923534Y-112836165D01*
X101925012Y-112843995D01*
X101926570Y-112851816D01*
X101928207Y-112859624D01*
X101929923Y-112867420D01*
X101931718Y-112875203D01*
X101933592Y-112882971D01*
X101935544Y-112890724D01*
X101937575Y-112898460D01*
X101939683Y-112906179D01*
X101941870Y-112913880D01*
X101944134Y-112921560D01*
X101946476Y-112929221D01*
X101948894Y-112936860D01*
X101951390Y-112944477D01*
X101953961Y-112952070D01*
X101956609Y-112959639D01*
X101959333Y-112967182D01*
X101962133Y-112974699D01*
X101965007Y-112982188D01*
X101967956Y-112989649D01*
X101970980Y-112997080D01*
X101972520Y-113000785D01*
X101974078Y-113004481D01*
X101975654Y-113008170D01*
X101977249Y-113011851D01*
X101978862Y-113015524D01*
X101980493Y-113019188D01*
X101982143Y-113022844D01*
X101983810Y-113026492D01*
X101985496Y-113030131D01*
X101987200Y-113033761D01*
X101988921Y-113037383D01*
X101990661Y-113040996D01*
X101992418Y-113044599D01*
X101994193Y-113048194D01*
X101995986Y-113051779D01*
X101997797Y-113055354D01*
X101999625Y-113058920D01*
X102001470Y-113062477D01*
X102003333Y-113066024D01*
X102005214Y-113069561D01*
X102007112Y-113073087D01*
X102009027Y-113076605D01*
X102010959Y-113080111D01*
X102012909Y-113083608D01*
X102014876Y-113087093D01*
X102016860Y-113090569D01*
X102018860Y-113094033D01*
X102020878Y-113097487D01*
X102022912Y-113100930D01*
X102024963Y-113104362D01*
X102027031Y-113107783D01*
X102029115Y-113111193D01*
X102031216Y-113114591D01*
X102033334Y-113117978D01*
X102035467Y-113121353D01*
X102037618Y-113124718D01*
X102039784Y-113128069D01*
X102041967Y-113131410D01*
X102044165Y-113134738D01*
X102046380Y-113138055D01*
X102048610Y-113141359D01*
X102050858Y-113144652D01*
X102053120Y-113147931D01*
X102055398Y-113151199D01*
X102057692Y-113154453D01*
X102060002Y-113157696D01*
X102062326Y-113160925D01*
X102064667Y-113164142D01*
X102067022Y-113167345D01*
X102069394Y-113170537D01*
X102071780Y-113173714D01*
X102074182Y-113176879D01*
X102076598Y-113180030D01*
X102079030Y-113183169D01*
X102081476Y-113186293D01*
X102083938Y-113189405D01*
X102086413Y-113192501D01*
X102088905Y-113195586D01*
X102091409Y-113198655D01*
X102093930Y-113201712D01*
X102096464Y-113204754D01*
X102099013Y-113207783D01*
X102101576Y-113210796D01*
X102104154Y-113213797D01*
X102106745Y-113216782D01*
X102109351Y-113219755D01*
X102111970Y-113222711D01*
X102114604Y-113225654D01*
X102117250Y-113228582D01*
X102119912Y-113231496D01*
X102122586Y-113234394D01*
X102125276Y-113237279D01*
X102127977Y-113240147D01*
X102130693Y-113243002D01*
X102133421Y-113245840D01*
X102136164Y-113248666D01*
X102138918Y-113251474D01*
X102141688Y-113254269D01*
X102142871Y-113255454D01*
X96312348Y-107339510D02*
X96319678Y-107342502D01*
X96327045Y-107345422D01*
X96334448Y-107348271D01*
X96341884Y-107351047D01*
X96349354Y-107353750D01*
X96356857Y-107356380D01*
X96364390Y-107358936D01*
X96371954Y-107361418D01*
X96379547Y-107363825D01*
X96387168Y-107366157D01*
X96394816Y-107368414D01*
X96402490Y-107370595D01*
X96410188Y-107372700D01*
X96417910Y-107374728D01*
X96425654Y-107376680D01*
X96433420Y-107378554D01*
X96441205Y-107380351D01*
X96449010Y-107382070D01*
X96456832Y-107383712D01*
X96464671Y-107385275D01*
X96468596Y-107386027D01*
X96472525Y-107386759D01*
X96476457Y-107387472D01*
X96480393Y-107388165D01*
X96484332Y-107388838D01*
X96488275Y-107389492D01*
X96492220Y-107390125D01*
X96496168Y-107390739D01*
X96500119Y-107391333D01*
X96504072Y-107391908D01*
X96508027Y-107392462D01*
X96511985Y-107392996D01*
X96515945Y-107393511D01*
X96519907Y-107394006D01*
X96523870Y-107394480D01*
X96527836Y-107394935D01*
X96531802Y-107395370D01*
X96535771Y-107395785D01*
X96539739Y-107396180D01*
X96543710Y-107396554D01*
X96547681Y-107396909D01*
X96551653Y-107397244D01*
X96555625Y-107397559D01*
X96559599Y-107397854D01*
X96563571Y-107398128D01*
X96567545Y-107398383D01*
X96571518Y-107398617D01*
X96575492Y-107398832D01*
X96579465Y-107399026D01*
X96583438Y-107399201D01*
X96587409Y-107399355D01*
X96591381Y-107399490D01*
X96595351Y-107399604D01*
X96599322Y-107399698D01*
X96603289Y-107399772D01*
X96607257Y-107399826D01*
X96611222Y-107399861D01*
X96615187Y-107399875D01*
X96615991Y-107399875D01*
X196509254Y-107701699D02*
X196525626Y-107694963D01*
X196542036Y-107688298D01*
X196558482Y-107681705D01*
X196574963Y-107675184D01*
X196591481Y-107668734D01*
X196608033Y-107662357D01*
X196624620Y-107656052D01*
X196641242Y-107649820D01*
X196657897Y-107643660D01*
X196674585Y-107637573D01*
X196691306Y-107631560D01*
X196708060Y-107625620D01*
X196724845Y-107619753D01*
X196741661Y-107613961D01*
X196758509Y-107608242D01*
X196775387Y-107602597D01*
X196792295Y-107597027D01*
X196809232Y-107591531D01*
X196826199Y-107586110D01*
X196843194Y-107580764D01*
X196860216Y-107575493D01*
X196877267Y-107570297D01*
X196894344Y-107565176D01*
X196911448Y-107560131D01*
X196928578Y-107555162D01*
X196945733Y-107550269D01*
X196962913Y-107545451D01*
X196980118Y-107540710D01*
X196997347Y-107536046D01*
X197014599Y-107531457D01*
X197031874Y-107526946D01*
X197049172Y-107522511D01*
X197066492Y-107518153D01*
X197083833Y-107513873D01*
X197101195Y-107509669D01*
X197118577Y-107505543D01*
X197135979Y-107501495D01*
X197153401Y-107497524D01*
X197170841Y-107493631D01*
X197188300Y-107489815D01*
X197205776Y-107486078D01*
X197223270Y-107482419D01*
X197240780Y-107478838D01*
X197258307Y-107475335D01*
X197267076Y-107473614D01*
X197275849Y-107471911D01*
X197284626Y-107470229D01*
X197293406Y-107468566D01*
X197302190Y-107466922D01*
X197310978Y-107465299D01*
X197319769Y-107463695D01*
X197328564Y-107462111D01*
X197337362Y-107460546D01*
X197346164Y-107459001D01*
X197354969Y-107457476D01*
X197363777Y-107455971D01*
X197372588Y-107454485D01*
X197381402Y-107453020D01*
X197390219Y-107451574D01*
X197399039Y-107450147D01*
X197407862Y-107448741D01*
X197416688Y-107447354D01*
X197425516Y-107445988D01*
X197434347Y-107444641D01*
X197443181Y-107443313D01*
X197452017Y-107442006D01*
X197460855Y-107440719D01*
X197469697Y-107439451D01*
X197478540Y-107438203D01*
X197487386Y-107436976D01*
X197496233Y-107435768D01*
X197505084Y-107434580D01*
X197513935Y-107433412D01*
X197522790Y-107432263D01*
X197531645Y-107431135D01*
X197540504Y-107430027D01*
X197549363Y-107428938D01*
X197558225Y-107427870D01*
X197567087Y-107426821D01*
X197575952Y-107425793D01*
X197584818Y-107424784D01*
X197593686Y-107423795D01*
X197602555Y-107422827D01*
X197611426Y-107421878D01*
X197620297Y-107420949D01*
X197629170Y-107420040D01*
X197638044Y-107419152D01*
X197646919Y-107418283D01*
X197655795Y-107417434D01*
X197664673Y-107416605D01*
X197673550Y-107415797D01*
X197682429Y-107415008D01*
X197691308Y-107414239D01*
X197700189Y-107413490D01*
X197709069Y-107412762D01*
X197717951Y-107412053D01*
X197726832Y-107411364D01*
X197735715Y-107410696D01*
X197744597Y-107410047D01*
X197753481Y-107409419D01*
X197762363Y-107408810D01*
X197771247Y-107408222D01*
X197780130Y-107407653D01*
X197789014Y-107407105D01*
X197797897Y-107406577D01*
X197806781Y-107406068D01*
X197815663Y-107405580D01*
X197824547Y-107405112D01*
X197833429Y-107404664D01*
X197842312Y-107404236D01*
X197851193Y-107403828D01*
X197860075Y-107403439D01*
X197868955Y-107403072D01*
X197877836Y-107402724D01*
X197886715Y-107402396D01*
X197895594Y-107402088D01*
X197904472Y-107401800D01*
X197913350Y-107401532D01*
X197922225Y-107401285D01*
X197931101Y-107401057D01*
X197939975Y-107400850D01*
X197948849Y-107400662D01*
X197957720Y-107400494D01*
X197966591Y-107400347D01*
X197975460Y-107400220D01*
X197984329Y-107400112D01*
X197993194Y-107400025D01*
X198002060Y-107399957D01*
X198010923Y-107399910D01*
X198019786Y-107399883D01*
X198027469Y-107399875D01*
X199659376Y-66160490D02*
X199652046Y-66157498D01*
X199644679Y-66154578D01*
X199637276Y-66151729D01*
X199629840Y-66148953D01*
X199622370Y-66146250D01*
X199614867Y-66143620D01*
X199607334Y-66141064D01*
X199599770Y-66138582D01*
X199592177Y-66136175D01*
X199584556Y-66133843D01*
X199576908Y-66131586D01*
X199569234Y-66129405D01*
X199561536Y-66127300D01*
X199553814Y-66125272D01*
X199546070Y-66123320D01*
X199538304Y-66121446D01*
X199530519Y-66119649D01*
X199522714Y-66117930D01*
X199514892Y-66116288D01*
X199507053Y-66114725D01*
X199503128Y-66113973D01*
X199499199Y-66113241D01*
X199495267Y-66112528D01*
X199491331Y-66111835D01*
X199487392Y-66111162D01*
X199483449Y-66110508D01*
X199479504Y-66109875D01*
X199475556Y-66109261D01*
X199471605Y-66108667D01*
X199467652Y-66108092D01*
X199463697Y-66107538D01*
X199459739Y-66107004D01*
X199455779Y-66106489D01*
X199451817Y-66105994D01*
X199447854Y-66105520D01*
X199443888Y-66105065D01*
X199439922Y-66104630D01*
X199435953Y-66104215D01*
X199431985Y-66103820D01*
X199428014Y-66103446D01*
X199424043Y-66103091D01*
X199420071Y-66102756D01*
X199416099Y-66102441D01*
X199412125Y-66102146D01*
X199408153Y-66101872D01*
X199404179Y-66101617D01*
X199400206Y-66101383D01*
X199396232Y-66101168D01*
X199392259Y-66100974D01*
X199388286Y-66100799D01*
X199384315Y-66100645D01*
X199380343Y-66100510D01*
X199376373Y-66100396D01*
X199372402Y-66100302D01*
X199368435Y-66100228D01*
X199364467Y-66100174D01*
X199360502Y-66100139D01*
X199356537Y-66100125D01*
X199355733Y-66100125D01*
X96055008Y-66332409D02*
X96049440Y-66338033D01*
X96043925Y-66343718D01*
X96038462Y-66349464D01*
X96033053Y-66355269D01*
X96027699Y-66361133D01*
X96022400Y-66367055D01*
X96017157Y-66373034D01*
X96011971Y-66379069D01*
X96006843Y-66385160D01*
X96001773Y-66391305D01*
X95996763Y-66397505D01*
X95991813Y-66403757D01*
X95986923Y-66410061D01*
X95982096Y-66416416D01*
X95977330Y-66422821D01*
X95972628Y-66429275D01*
X95967990Y-66435778D01*
X95963417Y-66442327D01*
X95958908Y-66448923D01*
X95954466Y-66455564D01*
X95952270Y-66458901D01*
X95950090Y-66462249D01*
X95947928Y-66465608D01*
X95945782Y-66468978D01*
X95943653Y-66472358D01*
X95941542Y-66475748D01*
X95939447Y-66479149D01*
X95937370Y-66482560D01*
X95935310Y-66485981D01*
X95933268Y-66489412D01*
X95931243Y-66492853D01*
X95929235Y-66496303D01*
X95927245Y-66499763D01*
X95925273Y-66503232D01*
X95923319Y-66506710D01*
X95921382Y-66510198D01*
X95919463Y-66513694D01*
X95917562Y-66517200D01*
X95915680Y-66520714D01*
X95913815Y-66524237D01*
X95911969Y-66527767D01*
X95910140Y-66531307D01*
X95908330Y-66534855D01*
X95906539Y-66538411D01*
X95904766Y-66541974D01*
X95903011Y-66545546D01*
X95901275Y-66549124D01*
X95899557Y-66552711D01*
X95897858Y-66556305D01*
X95896178Y-66559906D01*
X95894517Y-66563514D01*
X95892874Y-66567130D01*
X95891250Y-66570751D01*
X95889645Y-66574381D01*
X95888060Y-66578016D01*
X95886492Y-66581658D01*
X95884945Y-66585306D01*
X95883416Y-66588961D01*
X95883089Y-66589749D01*
X96055008Y-107167591D02*
X96060632Y-107173159D01*
X96066318Y-107178675D01*
X96072064Y-107184137D01*
X96077869Y-107189547D01*
X96083733Y-107194901D01*
X96089655Y-107200200D01*
X96095635Y-107205443D01*
X96101670Y-107210630D01*
X96107761Y-107215758D01*
X96113907Y-107220828D01*
X96120106Y-107225838D01*
X96126358Y-107230788D01*
X96132663Y-107235678D01*
X96139018Y-107240505D01*
X96145423Y-107245271D01*
X96151877Y-107249973D01*
X96158380Y-107254611D01*
X96164929Y-107259184D01*
X96171525Y-107263693D01*
X96178166Y-107268135D01*
X96181504Y-107270331D01*
X96184852Y-107272511D01*
X96188211Y-107274673D01*
X96191580Y-107276819D01*
X96194960Y-107278948D01*
X96198351Y-107281059D01*
X96201751Y-107283154D01*
X96205163Y-107285231D01*
X96208583Y-107287291D01*
X96212014Y-107289333D01*
X96215455Y-107291358D01*
X96218905Y-107293366D01*
X96222365Y-107295356D01*
X96225834Y-107297328D01*
X96229312Y-107299282D01*
X96232800Y-107301219D01*
X96236296Y-107303137D01*
X96239802Y-107305038D01*
X96243316Y-107306921D01*
X96246839Y-107308786D01*
X96250369Y-107310632D01*
X96253909Y-107312460D01*
X96257456Y-107314270D01*
X96261012Y-107316062D01*
X96264575Y-107317835D01*
X96268147Y-107319590D01*
X96271726Y-107321325D01*
X96275313Y-107323043D01*
X96278906Y-107324742D01*
X96282508Y-107326422D01*
X96286115Y-107328083D01*
X96289731Y-107329726D01*
X96293352Y-107331350D01*
X96296982Y-107332955D01*
X96300616Y-107334540D01*
X96304259Y-107336107D01*
X96307906Y-107337655D01*
X96311561Y-107339184D01*
X96312348Y-107339510D01*
X99462470Y-65798301D02*
X99446098Y-65805037D01*
X99429688Y-65811702D01*
X99413242Y-65818295D01*
X99396761Y-65824816D01*
X99380243Y-65831266D01*
X99363691Y-65837643D01*
X99347104Y-65843948D01*
X99330482Y-65850180D01*
X99313827Y-65856340D01*
X99297139Y-65862427D01*
X99280418Y-65868440D01*
X99263664Y-65874380D01*
X99246879Y-65880247D01*
X99230063Y-65886039D01*
X99213215Y-65891758D01*
X99196337Y-65897403D01*
X99179429Y-65902973D01*
X99162492Y-65908469D01*
X99145525Y-65913890D01*
X99128530Y-65919236D01*
X99111508Y-65924507D01*
X99094457Y-65929703D01*
X99077380Y-65934824D01*
X99060276Y-65939869D01*
X99043146Y-65944838D01*
X99025991Y-65949731D01*
X99008811Y-65954549D01*
X98991606Y-65959290D01*
X98974377Y-65963954D01*
X98957125Y-65968543D01*
X98939850Y-65973054D01*
X98922552Y-65977489D01*
X98905232Y-65981847D01*
X98887891Y-65986127D01*
X98870529Y-65990331D01*
X98853147Y-65994457D01*
X98835745Y-65998505D01*
X98818323Y-66002476D01*
X98800883Y-66006369D01*
X98783424Y-66010185D01*
X98765948Y-66013922D01*
X98748454Y-66017581D01*
X98730944Y-66021162D01*
X98713417Y-66024665D01*
X98704648Y-66026386D01*
X98695875Y-66028089D01*
X98687098Y-66029771D01*
X98678318Y-66031434D01*
X98669534Y-66033078D01*
X98660746Y-66034701D01*
X98651955Y-66036305D01*
X98643160Y-66037889D01*
X98634362Y-66039454D01*
X98625560Y-66040999D01*
X98616755Y-66042524D01*
X98607947Y-66044029D01*
X98599136Y-66045515D01*
X98590322Y-66046980D01*
X98581505Y-66048426D01*
X98572685Y-66049853D01*
X98563862Y-66051259D01*
X98555036Y-66052646D01*
X98546208Y-66054012D01*
X98537377Y-66055359D01*
X98528543Y-66056687D01*
X98519707Y-66057994D01*
X98510869Y-66059281D01*
X98502027Y-66060549D01*
X98493184Y-66061797D01*
X98484338Y-66063024D01*
X98475491Y-66064232D01*
X98466640Y-66065420D01*
X98457789Y-66066588D01*
X98448934Y-66067737D01*
X98440079Y-66068865D01*
X98431220Y-66069973D01*
X98422361Y-66071062D01*
X98413499Y-66072130D01*
X98404637Y-66073179D01*
X98395772Y-66074207D01*
X98386906Y-66075216D01*
X98378038Y-66076205D01*
X98369169Y-66077173D01*
X98360298Y-66078122D01*
X98351427Y-66079051D01*
X98342554Y-66079960D01*
X98333680Y-66080848D01*
X98324805Y-66081717D01*
X98315929Y-66082566D01*
X98307051Y-66083395D01*
X98298174Y-66084203D01*
X98289295Y-66084992D01*
X98280416Y-66085761D01*
X98271535Y-66086510D01*
X98262655Y-66087238D01*
X98253773Y-66087947D01*
X98244892Y-66088636D01*
X98236009Y-66089304D01*
X98227127Y-66089953D01*
X98218243Y-66090581D01*
X98209361Y-66091190D01*
X98200477Y-66091778D01*
X98191594Y-66092347D01*
X98182710Y-66092895D01*
X98173827Y-66093423D01*
X98164943Y-66093932D01*
X98156061Y-66094420D01*
X98147177Y-66094888D01*
X98138295Y-66095336D01*
X98129412Y-66095764D01*
X98120531Y-66096172D01*
X98111649Y-66096561D01*
X98102769Y-66096928D01*
X98093888Y-66097276D01*
X98085009Y-66097604D01*
X98076130Y-66097912D01*
X98067252Y-66098200D01*
X98058374Y-66098468D01*
X98049499Y-66098715D01*
X98040623Y-66098943D01*
X98031749Y-66099150D01*
X98022875Y-66099338D01*
X98014004Y-66099506D01*
X98005133Y-66099653D01*
X97996264Y-66099780D01*
X97987395Y-66099888D01*
X97978530Y-66099975D01*
X97969664Y-66100043D01*
X97960801Y-66100090D01*
X97951938Y-66100117D01*
X97944255Y-66100125D01*
D10*
X194061137Y-112694471D02*
X194061137Y-111366207D01*
X97944255Y-66100125D02*
X96615991Y-66100125D01*
X95822724Y-66893392D02*
X95822724Y-106606608D01*
D11*
X194061137Y-60805529D02*
X194061098Y-60797666D01*
X194060979Y-60789797D01*
X194060781Y-60781923D01*
X194060502Y-60774045D01*
X194060143Y-60766165D01*
X194059704Y-60758282D01*
X194059185Y-60750398D01*
X194058585Y-60742513D01*
X194057906Y-60734629D01*
X194057146Y-60726746D01*
X194056307Y-60718865D01*
X194055387Y-60710987D01*
X194054387Y-60703113D01*
X194053307Y-60695244D01*
X194052148Y-60687381D01*
X194050908Y-60679524D01*
X194049589Y-60671675D01*
X194048190Y-60663835D01*
X194046712Y-60656005D01*
X194045154Y-60648184D01*
X194043517Y-60640376D01*
X194041801Y-60632580D01*
X194040006Y-60624797D01*
X194038132Y-60617029D01*
X194036180Y-60609276D01*
X194034149Y-60601540D01*
X194032041Y-60593821D01*
X194029854Y-60586120D01*
X194027590Y-60578440D01*
X194025248Y-60570779D01*
X194022830Y-60563140D01*
X194020334Y-60555523D01*
X194017763Y-60547930D01*
X194015115Y-60540361D01*
X194012391Y-60532818D01*
X194009591Y-60525301D01*
X194006717Y-60517812D01*
X194003768Y-60510351D01*
X194000744Y-60502920D01*
X193999204Y-60499215D01*
X193997646Y-60495519D01*
X193996070Y-60491830D01*
X193994475Y-60488149D01*
X193992862Y-60484476D01*
X193991231Y-60480812D01*
X193989581Y-60477156D01*
X193987914Y-60473508D01*
X193986228Y-60469869D01*
X193984524Y-60466239D01*
X193982803Y-60462617D01*
X193981063Y-60459004D01*
X193979306Y-60455401D01*
X193977531Y-60451806D01*
X193975738Y-60448221D01*
X193973927Y-60444646D01*
X193972099Y-60441080D01*
X193970254Y-60437523D01*
X193968391Y-60433976D01*
X193966510Y-60430439D01*
X193964612Y-60426913D01*
X193962697Y-60423395D01*
X193960765Y-60419889D01*
X193958815Y-60416392D01*
X193956848Y-60412907D01*
X193954864Y-60409431D01*
X193952864Y-60405967D01*
X193950846Y-60402513D01*
X193948812Y-60399070D01*
X193946761Y-60395638D01*
X193944693Y-60392217D01*
X193942609Y-60388807D01*
X193940508Y-60385409D01*
X193938390Y-60382022D01*
X193936257Y-60378647D01*
X193934106Y-60375282D01*
X193931940Y-60371931D01*
X193929757Y-60368590D01*
X193927559Y-60365262D01*
X193925344Y-60361945D01*
X193923114Y-60358641D01*
X193920866Y-60355348D01*
X193918604Y-60352069D01*
X193916326Y-60348801D01*
X193914032Y-60345547D01*
X193911722Y-60342304D01*
X193909398Y-60339075D01*
X193907057Y-60335858D01*
X193904702Y-60332655D01*
X193902330Y-60329463D01*
X193899944Y-60326286D01*
X193897542Y-60323121D01*
X193895126Y-60319970D01*
X193892694Y-60316831D01*
X193890248Y-60313707D01*
X193887786Y-60310595D01*
X193885311Y-60307499D01*
X193882819Y-60304414D01*
X193880315Y-60301345D01*
X193877794Y-60298288D01*
X193875260Y-60295246D01*
X193872711Y-60292217D01*
X193870148Y-60289204D01*
X193867570Y-60286203D01*
X193864979Y-60283218D01*
X193862373Y-60280245D01*
X193859754Y-60277289D01*
X193857120Y-60274346D01*
X193854474Y-60271418D01*
X193851812Y-60268504D01*
X193849138Y-60265606D01*
X193846448Y-60262721D01*
X193843747Y-60259853D01*
X193841031Y-60256998D01*
X193838303Y-60254160D01*
X193835560Y-60251334D01*
X193832806Y-60248526D01*
X193830036Y-60245731D01*
X193828853Y-60244546D01*
X102142871Y-113255454D02*
X102148454Y-113260982D01*
X102154097Y-113266457D01*
X102159800Y-113271879D01*
X102165563Y-113277247D01*
X102171384Y-113282561D01*
X102177264Y-113287820D01*
X102183202Y-113293024D01*
X102189196Y-113298171D01*
X102195248Y-113303261D01*
X102201355Y-113308294D01*
X102207517Y-113313269D01*
X102213734Y-113318185D01*
X102220005Y-113323042D01*
X102226329Y-113327839D01*
X102232706Y-113332576D01*
X102239134Y-113337251D01*
X102245614Y-113341865D01*
X102252144Y-113346416D01*
X102258724Y-113350905D01*
X102265352Y-113355330D01*
X102272028Y-113359691D01*
X102278752Y-113363987D01*
X102285522Y-113368218D01*
X102292338Y-113372383D01*
X102299198Y-113376482D01*
X102306103Y-113380514D01*
X102313050Y-113384479D01*
X102320040Y-113388375D01*
X102327071Y-113392203D01*
X102334142Y-113395962D01*
X102341253Y-113399651D01*
X102348402Y-113403271D01*
X102355590Y-113406819D01*
X102362813Y-113410297D01*
X102370073Y-113413703D01*
X102377367Y-113417037D01*
X102384696Y-113420299D01*
X102392057Y-113423487D01*
X102399450Y-113426603D01*
X102403159Y-113428133D01*
X102406874Y-113429644D01*
X102410598Y-113431137D01*
X102414329Y-113432612D01*
X102418067Y-113434067D01*
X102421812Y-113435505D01*
X102425564Y-113436923D01*
X102429323Y-113438322D01*
X102433089Y-113439703D01*
X102436861Y-113441065D01*
X102440640Y-113442408D01*
X102444426Y-113443732D01*
X102448217Y-113445037D01*
X102452015Y-113446323D01*
X102455818Y-113447590D01*
X102459628Y-113448837D01*
X102463443Y-113450066D01*
X102467264Y-113451275D01*
X102471091Y-113452465D01*
X102474923Y-113453636D01*
X102478760Y-113454788D01*
X102482602Y-113455920D01*
X102486449Y-113457033D01*
X102490301Y-113458126D01*
X102494158Y-113459200D01*
X102498020Y-113460254D01*
X102501885Y-113461289D01*
X102505756Y-113462305D01*
X102509630Y-113463300D01*
X102513510Y-113464277D01*
X102517392Y-113465233D01*
X102521279Y-113466170D01*
X102525169Y-113467087D01*
X102529063Y-113467985D01*
X102532960Y-113468863D01*
X102536862Y-113469721D01*
X102540765Y-113470559D01*
X102544673Y-113471378D01*
X102548582Y-113472176D01*
X102552496Y-113472955D01*
X102556411Y-113473714D01*
X102560331Y-113474453D01*
X102564251Y-113475172D01*
X102568175Y-113475872D01*
X102572100Y-113476551D01*
X102576029Y-113477211D01*
X102579958Y-113477850D01*
X102583891Y-113478470D01*
X102587824Y-113479069D01*
X102591760Y-113479649D01*
X102595696Y-113480208D01*
X102599635Y-113480748D01*
X102603574Y-113481268D01*
X102607516Y-113481767D01*
X102611457Y-113482247D01*
X102615401Y-113482706D01*
X102619344Y-113483145D01*
X102623290Y-113483565D01*
X102627234Y-113483964D01*
X102631181Y-113484343D01*
X102635126Y-113484702D01*
X102639074Y-113485041D01*
X102643019Y-113485360D01*
X102646967Y-113485659D01*
X102650913Y-113485938D01*
X102654861Y-113486197D01*
X102658806Y-113486436D01*
X102662753Y-113486654D01*
X102666698Y-113486853D01*
X102670644Y-113487031D01*
X102674587Y-113487189D01*
X102678532Y-113487328D01*
X102682474Y-113487446D01*
X102686417Y-113487544D01*
X102690356Y-113487622D01*
X102694297Y-113487680D01*
X102698234Y-113487718D01*
X102702172Y-113487736D01*
X102703854Y-113487738D01*
X199916716Y-66332409D02*
X199911092Y-66326841D01*
X199905406Y-66321325D01*
X199899660Y-66315863D01*
X199893855Y-66310453D01*
X199887991Y-66305099D01*
X199882069Y-66299800D01*
X199876089Y-66294557D01*
X199870054Y-66289370D01*
X199863963Y-66284242D01*
X199857817Y-66279172D01*
X199851618Y-66274162D01*
X199845366Y-66269212D01*
X199839061Y-66264322D01*
X199832706Y-66259495D01*
X199826301Y-66254729D01*
X199819847Y-66250027D01*
X199813344Y-66245389D01*
X199806795Y-66240816D01*
X199800199Y-66236307D01*
X199793558Y-66231865D01*
X199790220Y-66229669D01*
X199786872Y-66227489D01*
X199783513Y-66225327D01*
X199780144Y-66223181D01*
X199776764Y-66221052D01*
X199773373Y-66218941D01*
X199769973Y-66216846D01*
X199766561Y-66214769D01*
X199763141Y-66212709D01*
X199759710Y-66210667D01*
X199756269Y-66208642D01*
X199752819Y-66206634D01*
X199749359Y-66204644D01*
X199745890Y-66202672D01*
X199742412Y-66200718D01*
X199738924Y-66198781D01*
X199735428Y-66196863D01*
X199731922Y-66194962D01*
X199728408Y-66193079D01*
X199724885Y-66191214D01*
X199721355Y-66189368D01*
X199717815Y-66187540D01*
X199714268Y-66185730D01*
X199710712Y-66183938D01*
X199707149Y-66182165D01*
X199703577Y-66180410D01*
X199699998Y-66178675D01*
X199696411Y-66176957D01*
X199692818Y-66175258D01*
X199689216Y-66173578D01*
X199685609Y-66171917D01*
X199681993Y-66170274D01*
X199678372Y-66168650D01*
X199674742Y-66167045D01*
X199671108Y-66165460D01*
X199667465Y-66163893D01*
X199663818Y-66162345D01*
X199660163Y-66160816D01*
X199659376Y-66160490D01*
X96312348Y-66160490D02*
X96305050Y-66163555D01*
X96297776Y-66166697D01*
X96290528Y-66169914D01*
X96283308Y-66173207D01*
X96276115Y-66176576D01*
X96268951Y-66180019D01*
X96261817Y-66183536D01*
X96254715Y-66187127D01*
X96247644Y-66190791D01*
X96240607Y-66194528D01*
X96233604Y-66198338D01*
X96226637Y-66202219D01*
X96219706Y-66206171D01*
X96212813Y-66210195D01*
X96205958Y-66214288D01*
X96199143Y-66218451D01*
X96192369Y-66222682D01*
X96185636Y-66226982D01*
X96178946Y-66231350D01*
X96172300Y-66235784D01*
X96168993Y-66238026D01*
X96165698Y-66240285D01*
X96162415Y-66242560D01*
X96159142Y-66244852D01*
X96155882Y-66247159D01*
X96152633Y-66249483D01*
X96149397Y-66251823D01*
X96146172Y-66254179D01*
X96142960Y-66256550D01*
X96139759Y-66258938D01*
X96136572Y-66261341D01*
X96133397Y-66263760D01*
X96130234Y-66266194D01*
X96127084Y-66268644D01*
X96123948Y-66271108D01*
X96120823Y-66273589D01*
X96117713Y-66276084D01*
X96114615Y-66278595D01*
X96111531Y-66281120D01*
X96108460Y-66283660D01*
X96105403Y-66286215D01*
X96102360Y-66288785D01*
X96099330Y-66291368D01*
X96096314Y-66293967D01*
X96093313Y-66296580D01*
X96090325Y-66299207D01*
X96087352Y-66301848D01*
X96084392Y-66304504D01*
X96081448Y-66307173D01*
X96078517Y-66309857D01*
X96075602Y-66312553D01*
X96072700Y-66315264D01*
X96069815Y-66317987D01*
X96066943Y-66320725D01*
X96064088Y-66323476D01*
X96061246Y-66326240D01*
X96058421Y-66329017D01*
X96055610Y-66331808D01*
X96055008Y-66332409D01*
X95883089Y-106910251D02*
X95886154Y-106917550D01*
X95889296Y-106924823D01*
X95892514Y-106932071D01*
X95895807Y-106939292D01*
X95899175Y-106946485D01*
X95902618Y-106953649D01*
X95906136Y-106960783D01*
X95909727Y-106967886D01*
X95913391Y-106974956D01*
X95917128Y-106981994D01*
X95920938Y-106988996D01*
X95924819Y-106995964D01*
X95928772Y-107002895D01*
X95932795Y-107009788D01*
X95936888Y-107016643D01*
X95941051Y-107023458D01*
X95945283Y-107030233D01*
X95949583Y-107036965D01*
X95953950Y-107043655D01*
X95958385Y-107050302D01*
X95960627Y-107053608D01*
X95962886Y-107056903D01*
X95965161Y-107060187D01*
X95967452Y-107063459D01*
X95969760Y-107066719D01*
X95972083Y-107069968D01*
X95974423Y-107073204D01*
X95976779Y-107076429D01*
X95979150Y-107079641D01*
X95981538Y-107082842D01*
X95983941Y-107086029D01*
X95986360Y-107089204D01*
X95988794Y-107092367D01*
X95991244Y-107095517D01*
X95993709Y-107098653D01*
X95996189Y-107101777D01*
X95998684Y-107104888D01*
X96001195Y-107107985D01*
X96003720Y-107111069D01*
X96006260Y-107114140D01*
X96008815Y-107117197D01*
X96011384Y-107120241D01*
X96013968Y-107123270D01*
X96016567Y-107126286D01*
X96019179Y-107129287D01*
X96021807Y-107132275D01*
X96024448Y-107135248D01*
X96027103Y-107138208D01*
X96029772Y-107141152D01*
X96032456Y-107144082D01*
X96035152Y-107146997D01*
X96037863Y-107149899D01*
X96040586Y-107152784D01*
X96043324Y-107155656D01*
X96046074Y-107158511D01*
X96048839Y-107161352D01*
X96051615Y-107164177D01*
X96054406Y-107166988D01*
X96055008Y-107167591D01*
X101608763Y-63652008D02*
X101601954Y-63668347D01*
X101595069Y-63684662D01*
X101588108Y-63700951D01*
X101581070Y-63717216D01*
X101573956Y-63733455D01*
X101566766Y-63749668D01*
X101559501Y-63765853D01*
X101552160Y-63782012D01*
X101544744Y-63798144D01*
X101537253Y-63814247D01*
X101529687Y-63830321D01*
X101522046Y-63846367D01*
X101514331Y-63862383D01*
X101506541Y-63878369D01*
X101498677Y-63894324D01*
X101490740Y-63910249D01*
X101482728Y-63926142D01*
X101474643Y-63942003D01*
X101466485Y-63957832D01*
X101458254Y-63973628D01*
X101449950Y-63989390D01*
X101441573Y-64005119D01*
X101433124Y-64020814D01*
X101424603Y-64036473D01*
X101416009Y-64052098D01*
X101407345Y-64067687D01*
X101398609Y-64083239D01*
X101389801Y-64098755D01*
X101380923Y-64114234D01*
X101371974Y-64129675D01*
X101362955Y-64145079D01*
X101353866Y-64160443D01*
X101344706Y-64175769D01*
X101335477Y-64191055D01*
X101326179Y-64206301D01*
X101316812Y-64221507D01*
X101307376Y-64236672D01*
X101297871Y-64251795D01*
X101288299Y-64266877D01*
X101278658Y-64281916D01*
X101268950Y-64296913D01*
X101259174Y-64311867D01*
X101249331Y-64326777D01*
X101239422Y-64341643D01*
X101234442Y-64349059D01*
X101229446Y-64356464D01*
X101224433Y-64363858D01*
X101219404Y-64371240D01*
X101214358Y-64378612D01*
X101209296Y-64385971D01*
X101204218Y-64393320D01*
X101199123Y-64400656D01*
X101194012Y-64407981D01*
X101188884Y-64415295D01*
X101183740Y-64422597D01*
X101178580Y-64429887D01*
X101173404Y-64437165D01*
X101168212Y-64444432D01*
X101163004Y-64451686D01*
X101157780Y-64458929D01*
X101152540Y-64466159D01*
X101147283Y-64473378D01*
X101142011Y-64480584D01*
X101136723Y-64487779D01*
X101131419Y-64494960D01*
X101126100Y-64502130D01*
X101120764Y-64509287D01*
X101115413Y-64516432D01*
X101110047Y-64523565D01*
X101104664Y-64530685D01*
X101099266Y-64537792D01*
X101093853Y-64544887D01*
X101088424Y-64551969D01*
X101082979Y-64559038D01*
X101077520Y-64566095D01*
X101072044Y-64573139D01*
X101066554Y-64580170D01*
X101061048Y-64587188D01*
X101055527Y-64594193D01*
X101049991Y-64601185D01*
X101044439Y-64608164D01*
X101038873Y-64615130D01*
X101033291Y-64622082D01*
X101027694Y-64629022D01*
X101022083Y-64635948D01*
X101016456Y-64642861D01*
X101010815Y-64649760D01*
X101005158Y-64656646D01*
X100999487Y-64663519D01*
X100993801Y-64670378D01*
X100988101Y-64677223D01*
X100982385Y-64684055D01*
X100976655Y-64690873D01*
X100970910Y-64697678D01*
X100965152Y-64704468D01*
X100959378Y-64711245D01*
X100953590Y-64718008D01*
X100947787Y-64724757D01*
X100941970Y-64731492D01*
X100936139Y-64738213D01*
X100930294Y-64744920D01*
X100924434Y-64751613D01*
X100918560Y-64758291D01*
X100912672Y-64764956D01*
X100906770Y-64771606D01*
X100900853Y-64778242D01*
X100894923Y-64784863D01*
X100888979Y-64791471D01*
X100883021Y-64798063D01*
X100877049Y-64804642D01*
X100871063Y-64811205D01*
X100865063Y-64817755D01*
X100859050Y-64824289D01*
X100853023Y-64830809D01*
X100846983Y-64837314D01*
X100840928Y-64843805D01*
X100834860Y-64850280D01*
X100828778Y-64856741D01*
X100822684Y-64863187D01*
X100816575Y-64869618D01*
X100810454Y-64876034D01*
X100804319Y-64882435D01*
X100798171Y-64888821D01*
X100792009Y-64895192D01*
X100785835Y-64901547D01*
X100779647Y-64907888D01*
X100773447Y-64914213D01*
X100767232Y-64920523D01*
X100761006Y-64926818D01*
X100754765Y-64933097D01*
X100749168Y-64938706D01*
X195222556Y-108561294D02*
X195235097Y-108548809D01*
X195247700Y-108536376D01*
X195260364Y-108523995D01*
X195273088Y-108511667D01*
X195285873Y-108499391D01*
X195298719Y-108487168D01*
X195311624Y-108474999D01*
X195324588Y-108462884D01*
X195337611Y-108450823D01*
X195350694Y-108438817D01*
X195363834Y-108426866D01*
X195377033Y-108414970D01*
X195390289Y-108403130D01*
X195403602Y-108391346D01*
X195416972Y-108379618D01*
X195430399Y-108367947D01*
X195443882Y-108356334D01*
X195457421Y-108344778D01*
X195471015Y-108333280D01*
X195484664Y-108321840D01*
X195498368Y-108310459D01*
X195512126Y-108299136D01*
X195525937Y-108287873D01*
X195539803Y-108276670D01*
X195553721Y-108265527D01*
X195567691Y-108254444D01*
X195581714Y-108243421D01*
X195595789Y-108232460D01*
X195609915Y-108221560D01*
X195624092Y-108210722D01*
X195638320Y-108199946D01*
X195652598Y-108189232D01*
X195666925Y-108178581D01*
X195681302Y-108167993D01*
X195695728Y-108157469D01*
X195710202Y-108147008D01*
X195724723Y-108136611D01*
X195739293Y-108126278D01*
X195753910Y-108116011D01*
X195768573Y-108105808D01*
X195783282Y-108095670D01*
X195798038Y-108085598D01*
X195812838Y-108075592D01*
X195827684Y-108065652D01*
X195835123Y-108060707D01*
X195842574Y-108055779D01*
X195850035Y-108050867D01*
X195857508Y-108045972D01*
X195864991Y-108041094D01*
X195872485Y-108036233D01*
X195879990Y-108031389D01*
X195887506Y-108026561D01*
X195895032Y-108021751D01*
X195902569Y-108016957D01*
X195910116Y-108012180D01*
X195917675Y-108007421D01*
X195925243Y-108002678D01*
X195932822Y-107997953D01*
X195940411Y-107993244D01*
X195948010Y-107988553D01*
X195955619Y-107983879D01*
X195963239Y-107979223D01*
X195970869Y-107974583D01*
X195978508Y-107969961D01*
X195986158Y-107965357D01*
X195993818Y-107960769D01*
X196001487Y-107956199D01*
X196009166Y-107951647D01*
X196016855Y-107947112D01*
X196024554Y-107942594D01*
X196032262Y-107938094D01*
X196039980Y-107933612D01*
X196047707Y-107929147D01*
X196055444Y-107924700D01*
X196063190Y-107920271D01*
X196070946Y-107915859D01*
X196078710Y-107911465D01*
X196086484Y-107907089D01*
X196094267Y-107902731D01*
X196102059Y-107898390D01*
X196109860Y-107894068D01*
X196117671Y-107889763D01*
X196125489Y-107885476D01*
X196133317Y-107881207D01*
X196141154Y-107876957D01*
X196148999Y-107872724D01*
X196156853Y-107868509D01*
X196164716Y-107864312D01*
X196172587Y-107860134D01*
X196180467Y-107855973D01*
X196188355Y-107851831D01*
X196196252Y-107847707D01*
X196204156Y-107843601D01*
X196212070Y-107839513D01*
X196219990Y-107835444D01*
X196227920Y-107831393D01*
X196235857Y-107827361D01*
X196243803Y-107823346D01*
X196251756Y-107819350D01*
X196259718Y-107815373D01*
X196267686Y-107811414D01*
X196275664Y-107807473D01*
X196283648Y-107803551D01*
X196291641Y-107799647D01*
X196299640Y-107795763D01*
X196307648Y-107791896D01*
X196315662Y-107788048D01*
X196323685Y-107784219D01*
X196331714Y-107780409D01*
X196339752Y-107776617D01*
X196347796Y-107772844D01*
X196355848Y-107769089D01*
X196363905Y-107765354D01*
X196371972Y-107761637D01*
X196380044Y-107757939D01*
X196388124Y-107754259D01*
X196396209Y-107750599D01*
X196404303Y-107746957D01*
X196412403Y-107743335D01*
X196420510Y-107739731D01*
X196428623Y-107736147D01*
X196436743Y-107732580D01*
X196444869Y-107729034D01*
X196453003Y-107725506D01*
X196461141Y-107721997D01*
X196469288Y-107718507D01*
X196477439Y-107715037D01*
X196485598Y-107711585D01*
X196493761Y-107708153D01*
X196501933Y-107704739D01*
X196509254Y-107701699D01*
D10*
X198027469Y-107399875D02*
X199355733Y-107399875D01*
D11*
X193828853Y-60244546D02*
X193823270Y-60239018D01*
X193817627Y-60233543D01*
X193811924Y-60228121D01*
X193806161Y-60222753D01*
X193800340Y-60217439D01*
X193794460Y-60212180D01*
X193788522Y-60206976D01*
X193782528Y-60201829D01*
X193776476Y-60196739D01*
X193770369Y-60191706D01*
X193764207Y-60186731D01*
X193757990Y-60181815D01*
X193751719Y-60176958D01*
X193745395Y-60172161D01*
X193739018Y-60167424D01*
X193732590Y-60162749D01*
X193726110Y-60158135D01*
X193719580Y-60153584D01*
X193713000Y-60149095D01*
X193706372Y-60144670D01*
X193699696Y-60140309D01*
X193692972Y-60136013D01*
X193686202Y-60131782D01*
X193679386Y-60127617D01*
X193672526Y-60123518D01*
X193665621Y-60119486D01*
X193658674Y-60115521D01*
X193651684Y-60111625D01*
X193644653Y-60107797D01*
X193637582Y-60104038D01*
X193630471Y-60100349D01*
X193623322Y-60096729D01*
X193616134Y-60093181D01*
X193608911Y-60089703D01*
X193601651Y-60086297D01*
X193594357Y-60082963D01*
X193587028Y-60079701D01*
X193579667Y-60076513D01*
X193572274Y-60073397D01*
X193568565Y-60071867D01*
X193564850Y-60070356D01*
X193561126Y-60068863D01*
X193557395Y-60067388D01*
X193553657Y-60065933D01*
X193549912Y-60064495D01*
X193546160Y-60063077D01*
X193542401Y-60061678D01*
X193538635Y-60060297D01*
X193534863Y-60058935D01*
X193531084Y-60057592D01*
X193527298Y-60056268D01*
X193523507Y-60054963D01*
X193519709Y-60053677D01*
X193515906Y-60052410D01*
X193512096Y-60051163D01*
X193508281Y-60049934D01*
X193504460Y-60048725D01*
X193500633Y-60047535D01*
X193496801Y-60046364D01*
X193492964Y-60045212D01*
X193489122Y-60044080D01*
X193485275Y-60042967D01*
X193481423Y-60041874D01*
X193477566Y-60040800D01*
X193473704Y-60039746D01*
X193469839Y-60038711D01*
X193465968Y-60037695D01*
X193462094Y-60036700D01*
X193458214Y-60035723D01*
X193454332Y-60034767D01*
X193450445Y-60033830D01*
X193446555Y-60032913D01*
X193442661Y-60032015D01*
X193438764Y-60031137D01*
X193434862Y-60030279D01*
X193430959Y-60029441D01*
X193427051Y-60028622D01*
X193423142Y-60027824D01*
X193419228Y-60027045D01*
X193415313Y-60026286D01*
X193411393Y-60025547D01*
X193407473Y-60024828D01*
X193403549Y-60024128D01*
X193399624Y-60023449D01*
X193395695Y-60022789D01*
X193391766Y-60022150D01*
X193387833Y-60021530D01*
X193383900Y-60020931D01*
X193379964Y-60020351D01*
X193376028Y-60019792D01*
X193372089Y-60019252D01*
X193368150Y-60018732D01*
X193364208Y-60018233D01*
X193360267Y-60017753D01*
X193356323Y-60017294D01*
X193352380Y-60016855D01*
X193348434Y-60016435D01*
X193344490Y-60016036D01*
X193340543Y-60015657D01*
X193336598Y-60015298D01*
X193332650Y-60014959D01*
X193328705Y-60014640D01*
X193324757Y-60014341D01*
X193320811Y-60014062D01*
X193316863Y-60013803D01*
X193312918Y-60013564D01*
X193308971Y-60013346D01*
X193305026Y-60013147D01*
X193301080Y-60012969D01*
X193297137Y-60012811D01*
X193293192Y-60012672D01*
X193289250Y-60012554D01*
X193285307Y-60012456D01*
X193281368Y-60012378D01*
X193277427Y-60012320D01*
X193273490Y-60012282D01*
X193269552Y-60012264D01*
X193267870Y-60012262D01*
X199916716Y-107167591D02*
X199922284Y-107161967D01*
X199927799Y-107156282D01*
X199933262Y-107150536D01*
X199938671Y-107144731D01*
X199944025Y-107138867D01*
X199949324Y-107132945D01*
X199954567Y-107126966D01*
X199959753Y-107120931D01*
X199964881Y-107114840D01*
X199969951Y-107108695D01*
X199974961Y-107102495D01*
X199979911Y-107096243D01*
X199984801Y-107089939D01*
X199989628Y-107083584D01*
X199994394Y-107077179D01*
X199999096Y-107070725D01*
X200003734Y-107064222D01*
X200008307Y-107057673D01*
X200012816Y-107051077D01*
X200017258Y-107044436D01*
X200019454Y-107041099D01*
X200021634Y-107037751D01*
X200023796Y-107034392D01*
X200025942Y-107031022D01*
X200028071Y-107027642D01*
X200030182Y-107024252D01*
X200032277Y-107020851D01*
X200034354Y-107017440D01*
X200036414Y-107014019D01*
X200038456Y-107010588D01*
X200040481Y-107007147D01*
X200042489Y-107003697D01*
X200044479Y-107000237D01*
X200046451Y-106996768D01*
X200048405Y-106993290D01*
X200050342Y-106989802D01*
X200052261Y-106986306D01*
X200054162Y-106982800D01*
X200056044Y-106979286D01*
X200057909Y-106975763D01*
X200059755Y-106972233D01*
X200061584Y-106968693D01*
X200063394Y-106965145D01*
X200065185Y-106961589D01*
X200066958Y-106958026D01*
X200068713Y-106954454D01*
X200070449Y-106950876D01*
X200072167Y-106947289D01*
X200073866Y-106943695D01*
X200075546Y-106940094D01*
X200077207Y-106936486D01*
X200078850Y-106932870D01*
X200080474Y-106929249D01*
X200082079Y-106925619D01*
X200083664Y-106921984D01*
X200085232Y-106918342D01*
X200086779Y-106914694D01*
X200088308Y-106911039D01*
X200088635Y-106910251D01*
X99462470Y-107701699D02*
X99478809Y-107708508D01*
X99495124Y-107715393D01*
X99511413Y-107722354D01*
X99527678Y-107729392D01*
X99543917Y-107736506D01*
X99560130Y-107743696D01*
X99576315Y-107750961D01*
X99592474Y-107758302D01*
X99608606Y-107765718D01*
X99624709Y-107773209D01*
X99640783Y-107780775D01*
X99656829Y-107788416D01*
X99672845Y-107796131D01*
X99688831Y-107803921D01*
X99704786Y-107811785D01*
X99720711Y-107819722D01*
X99736604Y-107827734D01*
X99752465Y-107835819D01*
X99768294Y-107843977D01*
X99784090Y-107852208D01*
X99799852Y-107860512D01*
X99815581Y-107868889D01*
X99831276Y-107877338D01*
X99846935Y-107885859D01*
X99862560Y-107894453D01*
X99878149Y-107903117D01*
X99893701Y-107911853D01*
X99909217Y-107920661D01*
X99924696Y-107929539D01*
X99940137Y-107938488D01*
X99955541Y-107947507D01*
X99970905Y-107956596D01*
X99986231Y-107965756D01*
X100001517Y-107974985D01*
X100016763Y-107984283D01*
X100031969Y-107993650D01*
X100047134Y-108003086D01*
X100062257Y-108012591D01*
X100077339Y-108022163D01*
X100092378Y-108031804D01*
X100107375Y-108041512D01*
X100122329Y-108051288D01*
X100137239Y-108061131D01*
X100152105Y-108071040D01*
X100159521Y-108076020D01*
X100166926Y-108081016D01*
X100174320Y-108086029D01*
X100181702Y-108091058D01*
X100189074Y-108096104D01*
X100196433Y-108101166D01*
X100203782Y-108106244D01*
X100211118Y-108111339D01*
X100218443Y-108116450D01*
X100225757Y-108121578D01*
X100233059Y-108126722D01*
X100240349Y-108131882D01*
X100247627Y-108137058D01*
X100254894Y-108142250D01*
X100262148Y-108147458D01*
X100269391Y-108152682D01*
X100276621Y-108157922D01*
X100283840Y-108163179D01*
X100291046Y-108168451D01*
X100298241Y-108173739D01*
X100305422Y-108179043D01*
X100312592Y-108184362D01*
X100319749Y-108189698D01*
X100326894Y-108195049D01*
X100334027Y-108200415D01*
X100341147Y-108205798D01*
X100348254Y-108211196D01*
X100355349Y-108216609D01*
X100362431Y-108222038D01*
X100369500Y-108227483D01*
X100376557Y-108232942D01*
X100383601Y-108238418D01*
X100390632Y-108243908D01*
X100397650Y-108249414D01*
X100404655Y-108254935D01*
X100411647Y-108260471D01*
X100418626Y-108266023D01*
X100425592Y-108271589D01*
X100432544Y-108277171D01*
X100439484Y-108282768D01*
X100446410Y-108288379D01*
X100453323Y-108294006D01*
X100460222Y-108299647D01*
X100467108Y-108305304D01*
X100473981Y-108310975D01*
X100480840Y-108316661D01*
X100487685Y-108322361D01*
X100494517Y-108328077D01*
X100501335Y-108333807D01*
X100508140Y-108339552D01*
X100514930Y-108345310D01*
X100521707Y-108351084D01*
X100528470Y-108356872D01*
X100535219Y-108362675D01*
X100541954Y-108368492D01*
X100548675Y-108374323D01*
X100555382Y-108380168D01*
X100562075Y-108386028D01*
X100568753Y-108391902D01*
X100575418Y-108397790D01*
X100582068Y-108403692D01*
X100588704Y-108409609D01*
X100595325Y-108415539D01*
X100601933Y-108421483D01*
X100608525Y-108427441D01*
X100615104Y-108433413D01*
X100621667Y-108439399D01*
X100628217Y-108445399D01*
X100634751Y-108451412D01*
X100641271Y-108457439D01*
X100647776Y-108463479D01*
X100654267Y-108469534D01*
X100660742Y-108475602D01*
X100667203Y-108481684D01*
X100673649Y-108487778D01*
X100680080Y-108493887D01*
X100686496Y-108500008D01*
X100692897Y-108506143D01*
X100699283Y-108512291D01*
X100705654Y-108518453D01*
X100712009Y-108524627D01*
X100718350Y-108530815D01*
X100724675Y-108537015D01*
X100730985Y-108543230D01*
X100737279Y-108549456D01*
X100743559Y-108555697D01*
X100749168Y-108561294D01*
X194362961Y-63652008D02*
X194356225Y-63635636D01*
X194349560Y-63619226D01*
X194342967Y-63602780D01*
X194336446Y-63586299D01*
X194329996Y-63569781D01*
X194323619Y-63553229D01*
X194317314Y-63536642D01*
X194311082Y-63520020D01*
X194304922Y-63503365D01*
X194298835Y-63486677D01*
X194292822Y-63469956D01*
X194286882Y-63453202D01*
X194281015Y-63436417D01*
X194275223Y-63419601D01*
X194269504Y-63402753D01*
X194263859Y-63385875D01*
X194258289Y-63368967D01*
X194252793Y-63352030D01*
X194247372Y-63335063D01*
X194242026Y-63318068D01*
X194236755Y-63301046D01*
X194231559Y-63283995D01*
X194226438Y-63266918D01*
X194221393Y-63249814D01*
X194216424Y-63232684D01*
X194211531Y-63215529D01*
X194206713Y-63198349D01*
X194201972Y-63181144D01*
X194197308Y-63163915D01*
X194192719Y-63146663D01*
X194188208Y-63129388D01*
X194183773Y-63112090D01*
X194179415Y-63094770D01*
X194175135Y-63077429D01*
X194170931Y-63060067D01*
X194166805Y-63042685D01*
X194162757Y-63025283D01*
X194158786Y-63007861D01*
X194154893Y-62990421D01*
X194151077Y-62972962D01*
X194147340Y-62955486D01*
X194143681Y-62937992D01*
X194140100Y-62920482D01*
X194136597Y-62902955D01*
X194134876Y-62894186D01*
X194133173Y-62885413D01*
X194131491Y-62876636D01*
X194129828Y-62867856D01*
X194128184Y-62859072D01*
X194126561Y-62850284D01*
X194124957Y-62841493D01*
X194123373Y-62832698D01*
X194121808Y-62823900D01*
X194120263Y-62815098D01*
X194118738Y-62806293D01*
X194117233Y-62797485D01*
X194115747Y-62788674D01*
X194114282Y-62779860D01*
X194112836Y-62771043D01*
X194111409Y-62762223D01*
X194110003Y-62753400D01*
X194108616Y-62744574D01*
X194107250Y-62735746D01*
X194105903Y-62726915D01*
X194104575Y-62718081D01*
X194103268Y-62709245D01*
X194101981Y-62700407D01*
X194100713Y-62691565D01*
X194099465Y-62682722D01*
X194098238Y-62673876D01*
X194097030Y-62665029D01*
X194095842Y-62656178D01*
X194094674Y-62647327D01*
X194093525Y-62638472D01*
X194092397Y-62629617D01*
X194091289Y-62620758D01*
X194090200Y-62611899D01*
X194089132Y-62603037D01*
X194088083Y-62594175D01*
X194087055Y-62585310D01*
X194086046Y-62576444D01*
X194085057Y-62567576D01*
X194084089Y-62558707D01*
X194083140Y-62549836D01*
X194082211Y-62540965D01*
X194081302Y-62532092D01*
X194080414Y-62523218D01*
X194079545Y-62514343D01*
X194078696Y-62505467D01*
X194077867Y-62496589D01*
X194077059Y-62487712D01*
X194076270Y-62478833D01*
X194075501Y-62469954D01*
X194074752Y-62461073D01*
X194074024Y-62452193D01*
X194073315Y-62443311D01*
X194072626Y-62434430D01*
X194071958Y-62425547D01*
X194071309Y-62416665D01*
X194070681Y-62407781D01*
X194070072Y-62398899D01*
X194069484Y-62390015D01*
X194068915Y-62381132D01*
X194068367Y-62372248D01*
X194067839Y-62363365D01*
X194067330Y-62354481D01*
X194066842Y-62345599D01*
X194066374Y-62336715D01*
X194065926Y-62327833D01*
X194065498Y-62318950D01*
X194065090Y-62310069D01*
X194064701Y-62301187D01*
X194064334Y-62292307D01*
X194063986Y-62283426D01*
X194063658Y-62274547D01*
X194063350Y-62265668D01*
X194063062Y-62256790D01*
X194062794Y-62247912D01*
X194062547Y-62239037D01*
X194062319Y-62230161D01*
X194062112Y-62221287D01*
X194061924Y-62212413D01*
X194061756Y-62203542D01*
X194061609Y-62194671D01*
X194061482Y-62185802D01*
X194061374Y-62176933D01*
X194061287Y-62168068D01*
X194061219Y-62159202D01*
X194061172Y-62150339D01*
X194061145Y-62141476D01*
X194061137Y-62133793D01*
X101608763Y-109847992D02*
X101615499Y-109864364D01*
X101622164Y-109880774D01*
X101628757Y-109897220D01*
X101635278Y-109913701D01*
X101641728Y-109930219D01*
X101648105Y-109946771D01*
X101654410Y-109963358D01*
X101660642Y-109979980D01*
X101666802Y-109996635D01*
X101672889Y-110013323D01*
X101678902Y-110030044D01*
X101684842Y-110046798D01*
X101690709Y-110063583D01*
X101696501Y-110080399D01*
X101702220Y-110097247D01*
X101707865Y-110114125D01*
X101713435Y-110131033D01*
X101718931Y-110147970D01*
X101724352Y-110164937D01*
X101729698Y-110181932D01*
X101734969Y-110198954D01*
X101740165Y-110216005D01*
X101745286Y-110233082D01*
X101750331Y-110250186D01*
X101755300Y-110267316D01*
X101760193Y-110284471D01*
X101765011Y-110301651D01*
X101769752Y-110318856D01*
X101774416Y-110336085D01*
X101779005Y-110353337D01*
X101783516Y-110370612D01*
X101787951Y-110387910D01*
X101792309Y-110405230D01*
X101796589Y-110422571D01*
X101800793Y-110439933D01*
X101804919Y-110457315D01*
X101808967Y-110474717D01*
X101812938Y-110492139D01*
X101816831Y-110509579D01*
X101820647Y-110527038D01*
X101824384Y-110544514D01*
X101828043Y-110562008D01*
X101831624Y-110579518D01*
X101835127Y-110597045D01*
X101836848Y-110605814D01*
X101838551Y-110614587D01*
X101840233Y-110623364D01*
X101841896Y-110632144D01*
X101843540Y-110640928D01*
X101845163Y-110649716D01*
X101846767Y-110658507D01*
X101848351Y-110667302D01*
X101849916Y-110676100D01*
X101851461Y-110684902D01*
X101852986Y-110693707D01*
X101854491Y-110702515D01*
X101855977Y-110711326D01*
X101857442Y-110720140D01*
X101858888Y-110728957D01*
X101860315Y-110737777D01*
X101861721Y-110746600D01*
X101863108Y-110755426D01*
X101864474Y-110764254D01*
X101865821Y-110773085D01*
X101867149Y-110781919D01*
X101868456Y-110790755D01*
X101869743Y-110799593D01*
X101871011Y-110808435D01*
X101872259Y-110817278D01*
X101873486Y-110826124D01*
X101874694Y-110834971D01*
X101875882Y-110843822D01*
X101877050Y-110852673D01*
X101878199Y-110861528D01*
X101879327Y-110870383D01*
X101880435Y-110879242D01*
X101881524Y-110888101D01*
X101882592Y-110896963D01*
X101883641Y-110905825D01*
X101884669Y-110914690D01*
X101885678Y-110923556D01*
X101886667Y-110932424D01*
X101887635Y-110941293D01*
X101888584Y-110950164D01*
X101889513Y-110959035D01*
X101890422Y-110967908D01*
X101891310Y-110976782D01*
X101892179Y-110985657D01*
X101893028Y-110994533D01*
X101893857Y-111003411D01*
X101894665Y-111012288D01*
X101895454Y-111021167D01*
X101896223Y-111030046D01*
X101896972Y-111038927D01*
X101897700Y-111047807D01*
X101898409Y-111056689D01*
X101899098Y-111065570D01*
X101899766Y-111074453D01*
X101900415Y-111083335D01*
X101901043Y-111092219D01*
X101901652Y-111101101D01*
X101902240Y-111109985D01*
X101902809Y-111118868D01*
X101903357Y-111127752D01*
X101903885Y-111136635D01*
X101904394Y-111145519D01*
X101904882Y-111154401D01*
X101905350Y-111163285D01*
X101905798Y-111172167D01*
X101906226Y-111181050D01*
X101906634Y-111189931D01*
X101907023Y-111198813D01*
X101907390Y-111207693D01*
X101907738Y-111216574D01*
X101908066Y-111225453D01*
X101908374Y-111234332D01*
X101908662Y-111243210D01*
X101908930Y-111252088D01*
X101909177Y-111260963D01*
X101909405Y-111269839D01*
X101909612Y-111278713D01*
X101909800Y-111287587D01*
X101909968Y-111296458D01*
X101910115Y-111305329D01*
X101910242Y-111314198D01*
X101910350Y-111323067D01*
X101910437Y-111331932D01*
X101910505Y-111340798D01*
X101910552Y-111349661D01*
X101910579Y-111358524D01*
X101910587Y-111366207D01*
X102703854Y-60012262D02*
X102695991Y-60012301D01*
X102688122Y-60012420D01*
X102680248Y-60012618D01*
X102672371Y-60012897D01*
X102664490Y-60013256D01*
X102656607Y-60013695D01*
X102648723Y-60014214D01*
X102640839Y-60014813D01*
X102632954Y-60015493D01*
X102625071Y-60016252D01*
X102617191Y-60017092D01*
X102609313Y-60018012D01*
X102601439Y-60019012D01*
X102593570Y-60020091D01*
X102585707Y-60021251D01*
X102577850Y-60022490D01*
X102570001Y-60023810D01*
X102562161Y-60025208D01*
X102554330Y-60026687D01*
X102546510Y-60028244D01*
X102538702Y-60029881D01*
X102530906Y-60031597D01*
X102523123Y-60033392D01*
X102515355Y-60035266D01*
X102507602Y-60037218D01*
X102499866Y-60039249D01*
X102492147Y-60041357D01*
X102484447Y-60043544D01*
X102476766Y-60045808D01*
X102469105Y-60048149D01*
X102461466Y-60050568D01*
X102453850Y-60053063D01*
X102446257Y-60055635D01*
X102438688Y-60058283D01*
X102431145Y-60061007D01*
X102423628Y-60063806D01*
X102416139Y-60066681D01*
X102408678Y-60069630D01*
X102401246Y-60072654D01*
X102397542Y-60074193D01*
X102393845Y-60075751D01*
X102390157Y-60077327D01*
X102386476Y-60078922D01*
X102382803Y-60080535D01*
X102379139Y-60082167D01*
X102375483Y-60083816D01*
X102371835Y-60085484D01*
X102368196Y-60087169D01*
X102364565Y-60088873D01*
X102360944Y-60090594D01*
X102357331Y-60092334D01*
X102353728Y-60094091D01*
X102350133Y-60095867D01*
X102346548Y-60097659D01*
X102342972Y-60099470D01*
X102339407Y-60101298D01*
X102335850Y-60103144D01*
X102332303Y-60105007D01*
X102328766Y-60106887D01*
X102325240Y-60108785D01*
X102321722Y-60110700D01*
X102318216Y-60112633D01*
X102314720Y-60114582D01*
X102311234Y-60116549D01*
X102307758Y-60118533D01*
X102304294Y-60120533D01*
X102300840Y-60122551D01*
X102297397Y-60124585D01*
X102293965Y-60126636D01*
X102290544Y-60128704D01*
X102287134Y-60130788D01*
X102283736Y-60132889D01*
X102280349Y-60135007D01*
X102276974Y-60137140D01*
X102273609Y-60139291D01*
X102270258Y-60141457D01*
X102266917Y-60143640D01*
X102263589Y-60145838D01*
X102260272Y-60148053D01*
X102256968Y-60150283D01*
X102253676Y-60152530D01*
X102250397Y-60154792D01*
X102247128Y-60157071D01*
X102243874Y-60159364D01*
X102240631Y-60161674D01*
X102237403Y-60163999D01*
X102234185Y-60166340D01*
X102230982Y-60168695D01*
X102227790Y-60171067D01*
X102224613Y-60173453D01*
X102221448Y-60175855D01*
X102218297Y-60178271D01*
X102215159Y-60180703D01*
X102212035Y-60183149D01*
X102208923Y-60185611D01*
X102205826Y-60188086D01*
X102202741Y-60190577D01*
X102199672Y-60193082D01*
X102196615Y-60195603D01*
X102193574Y-60198137D01*
X102190544Y-60200686D01*
X102187531Y-60203248D01*
X102184530Y-60205826D01*
X102181545Y-60208417D01*
X102178573Y-60211024D01*
X102175617Y-60213642D01*
X102172673Y-60216277D01*
X102169746Y-60218923D01*
X102166831Y-60221585D01*
X102163934Y-60224259D01*
X102161049Y-60226948D01*
X102158180Y-60229649D01*
X102155325Y-60232366D01*
X102152487Y-60235094D01*
X102149662Y-60237837D01*
X102146854Y-60240591D01*
X102144059Y-60243361D01*
X102142871Y-60244546D01*
X199659376Y-107339510D02*
X199666674Y-107336445D01*
X199673948Y-107333303D01*
X199681196Y-107330086D01*
X199688416Y-107326793D01*
X199695609Y-107323424D01*
X199702773Y-107319981D01*
X199709907Y-107316464D01*
X199717009Y-107312873D01*
X199724080Y-107309209D01*
X199731117Y-107305472D01*
X199738120Y-107301662D01*
X199745087Y-107297781D01*
X199752018Y-107293829D01*
X199758911Y-107289805D01*
X199765766Y-107285712D01*
X199772581Y-107281549D01*
X199779355Y-107277318D01*
X199786088Y-107273018D01*
X199792778Y-107268650D01*
X199799424Y-107264216D01*
X199802731Y-107261974D01*
X199806026Y-107259715D01*
X199809309Y-107257440D01*
X199812582Y-107255148D01*
X199815842Y-107252841D01*
X199819091Y-107250517D01*
X199822327Y-107248177D01*
X199825552Y-107245821D01*
X199828764Y-107243450D01*
X199831965Y-107241062D01*
X199835152Y-107238659D01*
X199838327Y-107236240D01*
X199841490Y-107233806D01*
X199844640Y-107231356D01*
X199847776Y-107228892D01*
X199850901Y-107226411D01*
X199854011Y-107223916D01*
X199857109Y-107221405D01*
X199860193Y-107218880D01*
X199863264Y-107216340D01*
X199866321Y-107213785D01*
X199869364Y-107211215D01*
X199872394Y-107208632D01*
X199875410Y-107206033D01*
X199878411Y-107203420D01*
X199881399Y-107200793D01*
X199884372Y-107198152D01*
X199887332Y-107195496D01*
X199890276Y-107192827D01*
X199893207Y-107190143D01*
X199896122Y-107187447D01*
X199899024Y-107184736D01*
X199901909Y-107182013D01*
X199904781Y-107179275D01*
X199907636Y-107176524D01*
X199910478Y-107173760D01*
X199913303Y-107170983D01*
X199916114Y-107168192D01*
X199916716Y-107167591D01*
D10*
X96615991Y-107399875D02*
X97944255Y-107399875D01*
D11*
X199355733Y-107399875D02*
X199363655Y-107399835D01*
X199371583Y-107399715D01*
X199379517Y-107399515D01*
X199387454Y-107399235D01*
X199395393Y-107398875D01*
X199403335Y-107398434D01*
X199411276Y-107397914D01*
X199419217Y-107397313D01*
X199427156Y-107396633D01*
X199435092Y-107395872D01*
X199443024Y-107395032D01*
X199450950Y-107394111D01*
X199458870Y-107393111D01*
X199466782Y-107392031D01*
X199474685Y-107390872D01*
X199482578Y-107389633D01*
X199490460Y-107388315D01*
X199498329Y-107386919D01*
X199506184Y-107385443D01*
X199514025Y-107383889D01*
X199517939Y-107383082D01*
X199521849Y-107382256D01*
X199525755Y-107381410D01*
X199529657Y-107380545D01*
X199533553Y-107379661D01*
X199537445Y-107378756D01*
X199541332Y-107377833D01*
X199545215Y-107376890D01*
X199549092Y-107375928D01*
X199552963Y-107374947D01*
X199556829Y-107373946D01*
X199560690Y-107372926D01*
X199564544Y-107371887D01*
X199568394Y-107370829D01*
X199572236Y-107369752D01*
X199576073Y-107368655D01*
X199579903Y-107367540D01*
X199583727Y-107366406D01*
X199587544Y-107365253D01*
X199591355Y-107364081D01*
X199595158Y-107362890D01*
X199598955Y-107361680D01*
X199602744Y-107360452D01*
X199606527Y-107359205D01*
X199610301Y-107357939D01*
X199614068Y-107356655D01*
X199617827Y-107355353D01*
X199621579Y-107354031D01*
X199625322Y-107352692D01*
X199629058Y-107351334D01*
X199632784Y-107349958D01*
X199636504Y-107348563D01*
X199640214Y-107347151D01*
X199643916Y-107345720D01*
X199647608Y-107344271D01*
X199651293Y-107342804D01*
X199654967Y-107341320D01*
X199658634Y-107339817D01*
X199659376Y-107339510D01*
D10*
X101910587Y-60805529D02*
X101910587Y-62133793D01*
D11*
X200149000Y-66893392D02*
X200148960Y-66885470D01*
X200148840Y-66877542D01*
X200148640Y-66869608D01*
X200148360Y-66861671D01*
X200148000Y-66853732D01*
X200147559Y-66845790D01*
X200147039Y-66837849D01*
X200146438Y-66829908D01*
X200145758Y-66821969D01*
X200144997Y-66814033D01*
X200144157Y-66806101D01*
X200143236Y-66798175D01*
X200142236Y-66790255D01*
X200141156Y-66782343D01*
X200139997Y-66774440D01*
X200138758Y-66766547D01*
X200137440Y-66758665D01*
X200136044Y-66750796D01*
X200134568Y-66742941D01*
X200133014Y-66735100D01*
X200132207Y-66731186D01*
X200131381Y-66727276D01*
X200130535Y-66723370D01*
X200129670Y-66719468D01*
X200128786Y-66715572D01*
X200127881Y-66711680D01*
X200126958Y-66707793D01*
X200126015Y-66703910D01*
X200125053Y-66700033D01*
X200124072Y-66696162D01*
X200123071Y-66692296D01*
X200122051Y-66688435D01*
X200121012Y-66684581D01*
X200119954Y-66680731D01*
X200118877Y-66676889D01*
X200117780Y-66673052D01*
X200116665Y-66669222D01*
X200115531Y-66665398D01*
X200114378Y-66661581D01*
X200113206Y-66657770D01*
X200112015Y-66653967D01*
X200110805Y-66650170D01*
X200109577Y-66646381D01*
X200108330Y-66642598D01*
X200107064Y-66638824D01*
X200105780Y-66635057D01*
X200104478Y-66631298D01*
X200103156Y-66627546D01*
X200101817Y-66623803D01*
X200100459Y-66620067D01*
X200099083Y-66616341D01*
X200097688Y-66612621D01*
X200096276Y-66608911D01*
X200094845Y-66605209D01*
X200093396Y-66601517D01*
X200091929Y-66597832D01*
X200090445Y-66594158D01*
X200088942Y-66590491D01*
X200088635Y-66589749D01*
X101910587Y-62133793D02*
X101910547Y-62151508D01*
X101910427Y-62169230D01*
X101910227Y-62186958D01*
X101909947Y-62204692D01*
X101909587Y-62222431D01*
X101909147Y-62240174D01*
X101908626Y-62257921D01*
X101908026Y-62275672D01*
X101907345Y-62293426D01*
X101906584Y-62311182D01*
X101905744Y-62328941D01*
X101904823Y-62346701D01*
X101903821Y-62364462D01*
X101902740Y-62382224D01*
X101901579Y-62399985D01*
X101900337Y-62417746D01*
X101899015Y-62435506D01*
X101897613Y-62453265D01*
X101896132Y-62471021D01*
X101894570Y-62488775D01*
X101892928Y-62506526D01*
X101891206Y-62524273D01*
X101889404Y-62542016D01*
X101887522Y-62559754D01*
X101885560Y-62577487D01*
X101883519Y-62595214D01*
X101881397Y-62612935D01*
X101879196Y-62630650D01*
X101876916Y-62648357D01*
X101874555Y-62666056D01*
X101872115Y-62683746D01*
X101869595Y-62701428D01*
X101866996Y-62719100D01*
X101864318Y-62736763D01*
X101861560Y-62754415D01*
X101858723Y-62772056D01*
X101855807Y-62789685D01*
X101852812Y-62807302D01*
X101849738Y-62824907D01*
X101846585Y-62842498D01*
X101843353Y-62860076D01*
X101840042Y-62877639D01*
X101836653Y-62895188D01*
X101833185Y-62912722D01*
X101831422Y-62921483D01*
X101829639Y-62930239D01*
X101827836Y-62938992D01*
X101826014Y-62947741D01*
X101824172Y-62956485D01*
X101822311Y-62965225D01*
X101820431Y-62973961D01*
X101818530Y-62982693D01*
X101816611Y-62991420D01*
X101814671Y-63000142D01*
X101812713Y-63008860D01*
X101810735Y-63017573D01*
X101808737Y-63026281D01*
X101806720Y-63034985D01*
X101804684Y-63043683D01*
X101802628Y-63052377D01*
X101800553Y-63061066D01*
X101798459Y-63069750D01*
X101796345Y-63078428D01*
X101794212Y-63087102D01*
X101792059Y-63095770D01*
X101789888Y-63104433D01*
X101787697Y-63113090D01*
X101785486Y-63121742D01*
X101783257Y-63130389D01*
X101781008Y-63139030D01*
X101778740Y-63147665D01*
X101776453Y-63156295D01*
X101774147Y-63164918D01*
X101771822Y-63173537D01*
X101769477Y-63182148D01*
X101767113Y-63190755D01*
X101764731Y-63199354D01*
X101762329Y-63207949D01*
X101759908Y-63216536D01*
X101757468Y-63225118D01*
X101755010Y-63233693D01*
X101752532Y-63242263D01*
X101750035Y-63250825D01*
X101747519Y-63259381D01*
X101744984Y-63267930D01*
X101742431Y-63276474D01*
X101739858Y-63285010D01*
X101737267Y-63293540D01*
X101734657Y-63302062D01*
X101732028Y-63310579D01*
X101729380Y-63319087D01*
X101726713Y-63327590D01*
X101724028Y-63336085D01*
X101721324Y-63344573D01*
X101718601Y-63353053D01*
X101715859Y-63361528D01*
X101713099Y-63369993D01*
X101710320Y-63378453D01*
X101707523Y-63386904D01*
X101704707Y-63395349D01*
X101701872Y-63403785D01*
X101699019Y-63412215D01*
X101696147Y-63420635D01*
X101693257Y-63429050D01*
X101690348Y-63437455D01*
X101687421Y-63445854D01*
X101684475Y-63454244D01*
X101681511Y-63462627D01*
X101678529Y-63471000D01*
X101675528Y-63479367D01*
X101672509Y-63487725D01*
X101669471Y-63496076D01*
X101666416Y-63504417D01*
X101663341Y-63512751D01*
X101660249Y-63521075D01*
X101657139Y-63529393D01*
X101654010Y-63537700D01*
X101650863Y-63546001D01*
X101647698Y-63554291D01*
X101644515Y-63562574D01*
X101641314Y-63570847D01*
X101638094Y-63579113D01*
X101634857Y-63587369D01*
X101631602Y-63595617D01*
X101628329Y-63603855D01*
X101625037Y-63612085D01*
X101621728Y-63620305D01*
X101618401Y-63628517D01*
X101615056Y-63636718D01*
X101611693Y-63644912D01*
X101608763Y-63652008D01*
X100749168Y-108561294D02*
X100761653Y-108573835D01*
X100774086Y-108586438D01*
X100786467Y-108599102D01*
X100798795Y-108611826D01*
X100811071Y-108624611D01*
X100823294Y-108637457D01*
X100835463Y-108650362D01*
X100847578Y-108663326D01*
X100859639Y-108676349D01*
X100871645Y-108689432D01*
X100883596Y-108702572D01*
X100895492Y-108715771D01*
X100907332Y-108729027D01*
X100919116Y-108742340D01*
X100930844Y-108755710D01*
X100942515Y-108769137D01*
X100954128Y-108782620D01*
X100965684Y-108796159D01*
X100977182Y-108809753D01*
X100988622Y-108823402D01*
X101000003Y-108837106D01*
X101011326Y-108850864D01*
X101022589Y-108864675D01*
X101033792Y-108878541D01*
X101044935Y-108892459D01*
X101056018Y-108906429D01*
X101067041Y-108920452D01*
X101078002Y-108934527D01*
X101088902Y-108948653D01*
X101099740Y-108962830D01*
X101110516Y-108977058D01*
X101121230Y-108991336D01*
X101131881Y-109005663D01*
X101142469Y-109020040D01*
X101152993Y-109034466D01*
X101163454Y-109048940D01*
X101173851Y-109063461D01*
X101184184Y-109078031D01*
X101194451Y-109092648D01*
X101204654Y-109107311D01*
X101214792Y-109122020D01*
X101224864Y-109136776D01*
X101234870Y-109151576D01*
X101244810Y-109166422D01*
X101249755Y-109173861D01*
X101254683Y-109181312D01*
X101259595Y-109188773D01*
X101264490Y-109196246D01*
X101269368Y-109203729D01*
X101274229Y-109211223D01*
X101279073Y-109218728D01*
X101283901Y-109226244D01*
X101288711Y-109233770D01*
X101293505Y-109241307D01*
X101298282Y-109248854D01*
X101303041Y-109256413D01*
X101307784Y-109263981D01*
X101312509Y-109271560D01*
X101317218Y-109279149D01*
X101321909Y-109286748D01*
X101326583Y-109294357D01*
X101331239Y-109301977D01*
X101335879Y-109309607D01*
X101340501Y-109317246D01*
X101345105Y-109324896D01*
X101349693Y-109332556D01*
X101354263Y-109340225D01*
X101358815Y-109347904D01*
X101363350Y-109355593D01*
X101367868Y-109363292D01*
X101372368Y-109371000D01*
X101376850Y-109378718D01*
X101381315Y-109386445D01*
X101385762Y-109394182D01*
X101390191Y-109401928D01*
X101394603Y-109409684D01*
X101398997Y-109417448D01*
X101403373Y-109425222D01*
X101407731Y-109433005D01*
X101412072Y-109440797D01*
X101416394Y-109448598D01*
X101420699Y-109456409D01*
X101424986Y-109464227D01*
X101429255Y-109472055D01*
X101433505Y-109479892D01*
X101437738Y-109487737D01*
X101441953Y-109495591D01*
X101446150Y-109503454D01*
X101450328Y-109511325D01*
X101454489Y-109519205D01*
X101458631Y-109527093D01*
X101462755Y-109534990D01*
X101466861Y-109542894D01*
X101470949Y-109550808D01*
X101475018Y-109558728D01*
X101479069Y-109566658D01*
X101483101Y-109574595D01*
X101487116Y-109582541D01*
X101491112Y-109590494D01*
X101495089Y-109598456D01*
X101499048Y-109606424D01*
X101502989Y-109614402D01*
X101506911Y-109622386D01*
X101510815Y-109630379D01*
X101514699Y-109638378D01*
X101518566Y-109646386D01*
X101522414Y-109654400D01*
X101526243Y-109662423D01*
X101530053Y-109670452D01*
X101533845Y-109678490D01*
X101537618Y-109686534D01*
X101541373Y-109694586D01*
X101545108Y-109702643D01*
X101548825Y-109710710D01*
X101552523Y-109718782D01*
X101556203Y-109726862D01*
X101559863Y-109734947D01*
X101563505Y-109743041D01*
X101567127Y-109751141D01*
X101570731Y-109759248D01*
X101574315Y-109767361D01*
X101577882Y-109775481D01*
X101581428Y-109783607D01*
X101584956Y-109791741D01*
X101588465Y-109799879D01*
X101591955Y-109808026D01*
X101595425Y-109816177D01*
X101598877Y-109824336D01*
X101602309Y-109832499D01*
X101605723Y-109840671D01*
X101608763Y-109847992D01*
D10*
X199355733Y-66100125D02*
X198027469Y-66100125D01*
X200150000Y-78230000D02*
X200150000Y-77170000D01*
D11*
X195222556Y-64938706D02*
X195210071Y-64926165D01*
X195197638Y-64913562D01*
X195185257Y-64900898D01*
X195172929Y-64888174D01*
X195160653Y-64875389D01*
X195148430Y-64862543D01*
X195136261Y-64849638D01*
X195124146Y-64836674D01*
X195112085Y-64823651D01*
X195100079Y-64810568D01*
X195088128Y-64797428D01*
X195076232Y-64784229D01*
X195064392Y-64770973D01*
X195052608Y-64757660D01*
X195040880Y-64744290D01*
X195029209Y-64730863D01*
X195017596Y-64717380D01*
X195006040Y-64703841D01*
X194994542Y-64690247D01*
X194983102Y-64676598D01*
X194971721Y-64662894D01*
X194960398Y-64649136D01*
X194949135Y-64635325D01*
X194937932Y-64621459D01*
X194926789Y-64607541D01*
X194915706Y-64593571D01*
X194904683Y-64579548D01*
X194893722Y-64565473D01*
X194882822Y-64551347D01*
X194871984Y-64537170D01*
X194861208Y-64522942D01*
X194850494Y-64508664D01*
X194839843Y-64494337D01*
X194829255Y-64479960D01*
X194818731Y-64465534D01*
X194808270Y-64451060D01*
X194797873Y-64436539D01*
X194787540Y-64421969D01*
X194777273Y-64407352D01*
X194767070Y-64392689D01*
X194756932Y-64377980D01*
X194746860Y-64363224D01*
X194736854Y-64348424D01*
X194726914Y-64333578D01*
X194721969Y-64326139D01*
X194717041Y-64318688D01*
X194712129Y-64311227D01*
X194707234Y-64303754D01*
X194702356Y-64296271D01*
X194697495Y-64288777D01*
X194692651Y-64281272D01*
X194687823Y-64273756D01*
X194683013Y-64266230D01*
X194678219Y-64258693D01*
X194673442Y-64251146D01*
X194668683Y-64243587D01*
X194663940Y-64236019D01*
X194659215Y-64228440D01*
X194654506Y-64220851D01*
X194649815Y-64213252D01*
X194645141Y-64205643D01*
X194640485Y-64198023D01*
X194635845Y-64190393D01*
X194631223Y-64182754D01*
X194626619Y-64175104D01*
X194622031Y-64167444D01*
X194617461Y-64159775D01*
X194612909Y-64152096D01*
X194608374Y-64144407D01*
X194603856Y-64136708D01*
X194599356Y-64129000D01*
X194594874Y-64121282D01*
X194590409Y-64113555D01*
X194585962Y-64105818D01*
X194581533Y-64098072D01*
X194577121Y-64090316D01*
X194572727Y-64082552D01*
X194568351Y-64074778D01*
X194563993Y-64066995D01*
X194559652Y-64059203D01*
X194555330Y-64051402D01*
X194551025Y-64043591D01*
X194546738Y-64035773D01*
X194542469Y-64027945D01*
X194538219Y-64020108D01*
X194533986Y-64012263D01*
X194529771Y-64004409D01*
X194525574Y-63996546D01*
X194521396Y-63988675D01*
X194517235Y-63980795D01*
X194513093Y-63972907D01*
X194508969Y-63965010D01*
X194504863Y-63957106D01*
X194500775Y-63949192D01*
X194496706Y-63941272D01*
X194492655Y-63933342D01*
X194488623Y-63925405D01*
X194484608Y-63917459D01*
X194480612Y-63909506D01*
X194476635Y-63901544D01*
X194472676Y-63893576D01*
X194468735Y-63885598D01*
X194464813Y-63877614D01*
X194460909Y-63869621D01*
X194457025Y-63861622D01*
X194453158Y-63853614D01*
X194449310Y-63845600D01*
X194445481Y-63837577D01*
X194441671Y-63829548D01*
X194437879Y-63821510D01*
X194434106Y-63813466D01*
X194430351Y-63805414D01*
X194426616Y-63797357D01*
X194422899Y-63789290D01*
X194419201Y-63781218D01*
X194415521Y-63773138D01*
X194411861Y-63765053D01*
X194408219Y-63756959D01*
X194404597Y-63748859D01*
X194400993Y-63740752D01*
X194397409Y-63732639D01*
X194393842Y-63724519D01*
X194390296Y-63716393D01*
X194386768Y-63708259D01*
X194383259Y-63700121D01*
X194379769Y-63691974D01*
X194376299Y-63683823D01*
X194372847Y-63675664D01*
X194369415Y-63667501D01*
X194366001Y-63659329D01*
X194362961Y-63652008D01*
X95883089Y-66589749D02*
X95880097Y-66597079D01*
X95877177Y-66604446D01*
X95874328Y-66611849D01*
X95871552Y-66619285D01*
X95868849Y-66626755D01*
X95866219Y-66634258D01*
X95863663Y-66641791D01*
X95861181Y-66649355D01*
X95858774Y-66656948D01*
X95856442Y-66664569D01*
X95854185Y-66672217D01*
X95852004Y-66679891D01*
X95849899Y-66687589D01*
X95847871Y-66695311D01*
X95845919Y-66703055D01*
X95844045Y-66710821D01*
X95842248Y-66718606D01*
X95840529Y-66726411D01*
X95838887Y-66734233D01*
X95837324Y-66742072D01*
X95836572Y-66745997D01*
X95835840Y-66749926D01*
X95835127Y-66753858D01*
X95834434Y-66757794D01*
X95833761Y-66761733D01*
X95833107Y-66765676D01*
X95832474Y-66769621D01*
X95831860Y-66773569D01*
X95831266Y-66777520D01*
X95830691Y-66781473D01*
X95830137Y-66785428D01*
X95829603Y-66789386D01*
X95829088Y-66793346D01*
X95828593Y-66797308D01*
X95828119Y-66801271D01*
X95827664Y-66805237D01*
X95827229Y-66809203D01*
X95826814Y-66813172D01*
X95826419Y-66817140D01*
X95826045Y-66821111D01*
X95825690Y-66825082D01*
X95825355Y-66829054D01*
X95825040Y-66833026D01*
X95824745Y-66837000D01*
X95824471Y-66840972D01*
X95824216Y-66844946D01*
X95823982Y-66848919D01*
X95823767Y-66852893D01*
X95823573Y-66856866D01*
X95823398Y-66860839D01*
X95823244Y-66864810D01*
X95823109Y-66868782D01*
X95822995Y-66872752D01*
X95822901Y-66876723D01*
X95822827Y-66880690D01*
X95822773Y-66884658D01*
X95822738Y-66888623D01*
X95822724Y-66892588D01*
X95822724Y-66893392D01*
X194362961Y-109847992D02*
X194369770Y-109831653D01*
X194376655Y-109815338D01*
X194383616Y-109799049D01*
X194390654Y-109782784D01*
X194397768Y-109766545D01*
X194404958Y-109750332D01*
X194412223Y-109734147D01*
X194419564Y-109717988D01*
X194426980Y-109701856D01*
X194434471Y-109685753D01*
X194442037Y-109669679D01*
X194449678Y-109653633D01*
X194457393Y-109637617D01*
X194465183Y-109621631D01*
X194473047Y-109605676D01*
X194480984Y-109589751D01*
X194488996Y-109573858D01*
X194497081Y-109557997D01*
X194505239Y-109542168D01*
X194513470Y-109526372D01*
X194521774Y-109510610D01*
X194530151Y-109494881D01*
X194538600Y-109479186D01*
X194547121Y-109463527D01*
X194555715Y-109447902D01*
X194564379Y-109432313D01*
X194573115Y-109416761D01*
X194581923Y-109401245D01*
X194590801Y-109385766D01*
X194599750Y-109370325D01*
X194608769Y-109354921D01*
X194617858Y-109339557D01*
X194627018Y-109324231D01*
X194636247Y-109308945D01*
X194645545Y-109293699D01*
X194654912Y-109278493D01*
X194664348Y-109263328D01*
X194673853Y-109248205D01*
X194683425Y-109233123D01*
X194693066Y-109218084D01*
X194702774Y-109203087D01*
X194712550Y-109188133D01*
X194722393Y-109173223D01*
X194732302Y-109158357D01*
X194737282Y-109150941D01*
X194742278Y-109143536D01*
X194747291Y-109136142D01*
X194752320Y-109128760D01*
X194757366Y-109121388D01*
X194762428Y-109114029D01*
X194767506Y-109106680D01*
X194772601Y-109099344D01*
X194777712Y-109092019D01*
X194782840Y-109084705D01*
X194787984Y-109077403D01*
X194793144Y-109070113D01*
X194798320Y-109062835D01*
X194803512Y-109055568D01*
X194808720Y-109048314D01*
X194813944Y-109041071D01*
X194819184Y-109033841D01*
X194824441Y-109026622D01*
X194829713Y-109019416D01*
X194835001Y-109012221D01*
X194840305Y-109005040D01*
X194845624Y-108997870D01*
X194850960Y-108990713D01*
X194856311Y-108983568D01*
X194861677Y-108976435D01*
X194867060Y-108969315D01*
X194872458Y-108962208D01*
X194877871Y-108955113D01*
X194883300Y-108948031D01*
X194888745Y-108940962D01*
X194894204Y-108933905D01*
X194899680Y-108926861D01*
X194905170Y-108919830D01*
X194910676Y-108912812D01*
X194916197Y-108905807D01*
X194921733Y-108898815D01*
X194927285Y-108891836D01*
X194932851Y-108884870D01*
X194938433Y-108877918D01*
X194944030Y-108870978D01*
X194949641Y-108864052D01*
X194955268Y-108857139D01*
X194960909Y-108850240D01*
X194966566Y-108843354D01*
X194972237Y-108836481D01*
X194977923Y-108829622D01*
X194983623Y-108822777D01*
X194989339Y-108815945D01*
X194995069Y-108809127D01*
X195000814Y-108802322D01*
X195006572Y-108795532D01*
X195012346Y-108788755D01*
X195018134Y-108781992D01*
X195023937Y-108775243D01*
X195029754Y-108768508D01*
X195035585Y-108761787D01*
X195041430Y-108755080D01*
X195047290Y-108748387D01*
X195053164Y-108741709D01*
X195059052Y-108735044D01*
X195064954Y-108728394D01*
X195070871Y-108721758D01*
X195076801Y-108715137D01*
X195082745Y-108708529D01*
X195088703Y-108701937D01*
X195094675Y-108695358D01*
X195100661Y-108688795D01*
X195106661Y-108682245D01*
X195112674Y-108675711D01*
X195118701Y-108669191D01*
X195124741Y-108662686D01*
X195130796Y-108656195D01*
X195136864Y-108649720D01*
X195142946Y-108643259D01*
X195149040Y-108636813D01*
X195155149Y-108630382D01*
X195161270Y-108623966D01*
X195167405Y-108617565D01*
X195173553Y-108611179D01*
X195179715Y-108604808D01*
X195185889Y-108598453D01*
X195192077Y-108592112D01*
X195198277Y-108585787D01*
X195204492Y-108579477D01*
X195210718Y-108573182D01*
X195216959Y-108566902D01*
X195222556Y-108561294D01*
D10*
X102703854Y-113487738D02*
X193267870Y-113487738D01*
%TO.C,J3*%
X200150000Y-86830000D02*
X200150000Y-78230000D01*
%TO.C,J2*%
X200150000Y-77170000D02*
X200150000Y-68570000D01*
%TD*%
M02*
